<svg width="397" height="71" viewBox="0 0 397 71" fill="none" xmlns="http://www.w3.org/2000/svg">
<path d="M50.7344 48.625C50.5156 52.0625 49.7656 55.1562 48.4844 57.9062C47.2344 60.6562 45.5469 63 43.4219 64.9375C41.2969 66.875 38.7656 68.375 35.8281 69.4375C32.8906 70.4688 29.6406 70.9844 26.0781 70.9844C23.2656 70.9844 20.6562 70.625 18.25 69.9062C15.875 69.1562 13.7344 68.0938 11.8281 66.7188C10.0781 65.4375 8.51562 63.8906 7.14062 62.0781C5.79688 60.2656 4.65625 58.2656 3.71875 56.0781C2.8125 53.8906 2.10938 51.4844 1.60938 48.8594C1.14062 46.2344 0.90625 43.4531 0.90625 40.5156V31.3281C0.90625 28.5781 1.125 25.9688 1.5625 23.5C2 21 2.65625 18.6875 3.53125 16.5625C4.53125 13.9688 5.84375 11.6562 7.46875 9.625C9.09375 7.59375 10.9375 5.875 13 4.46875C14.8438 3.28125 16.8594 2.375 19.0469 1.75C21.2656 1.09375 23.6406 0.765625 26.1719 0.765625C29.9219 0.765625 33.25 1.29687 36.1562 2.35938C39.0938 3.42188 41.5938 4.9375 43.6562 6.90625C45.7188 8.875 47.3438 11.2812 48.5312 14.125C49.7188 16.9688 50.4688 20.1719 50.7812 23.7344H37.6562C37.5312 21.7031 37.2188 19.9219 36.7188 18.3906C36.25 16.8594 35.5625 15.5781 34.6562 14.5469C33.7188 13.5469 32.5469 12.7969 31.1406 12.2969C29.7656 11.7656 28.1094 11.5 26.1719 11.5C25.1406 11.5 24.1719 11.6094 23.2656 11.8281C22.3906 12.0469 21.5781 12.375 20.8281 12.8125C19.5469 13.5625 18.4531 14.6406 17.5469 16.0469C16.6719 17.4219 15.9688 19.0313 15.4375 20.875C15.0312 22.3125 14.7344 23.9062 14.5469 25.6562C14.3594 27.375 14.2656 29.2344 14.2656 31.2344V40.5156C14.2656 43.2344 14.4062 45.6719 14.6875 47.8281C15 49.9531 15.4688 51.8125 16.0938 53.4062C16.5312 54.5 17.0469 55.4688 17.6406 56.3125C18.2656 57.1562 18.9688 57.8594 19.75 58.4219C20.5938 59.0469 21.5312 59.5156 22.5625 59.8281C23.625 60.1094 24.7969 60.25 26.0781 60.25C27.7969 60.25 29.3438 60.0312 30.7188 59.5938C32.0938 59.1562 33.2656 58.4688 34.2344 57.5312C35.2031 56.5938 35.9688 55.3906 36.5312 53.9219C37.0938 52.4531 37.4375 50.6875 37.5625 48.625H50.7344ZM108.625 40.8906C108.625 43.8281 108.359 46.625 107.828 49.2812C107.297 51.9062 106.531 54.3438 105.531 56.5938C104.469 58.8438 103.156 60.9062 101.594 62.7812C100.031 64.6562 98.25 66.2188 96.25 67.4688C94.4375 68.5625 92.4375 69.4062 90.25 70C88.0938 70.625 85.7656 70.9375 83.2656 70.9375C80.6094 70.9375 78.1562 70.5938 75.9062 69.9062C73.6562 69.2188 71.6094 68.25 69.7656 67C67.9531 65.6875 66.3281 64.1094 64.8906 62.2656C63.4531 60.3906 62.25 58.2812 61.2812 55.9375C60.4062 53.7812 59.7344 51.4375 59.2656 48.9062C58.8281 46.375 58.6094 43.7031 58.6094 40.8906V30.9531C58.6094 27.9531 58.8594 25.1094 59.3594 22.4219C59.8906 19.7344 60.6562 17.25 61.6562 14.9688C62.625 12.8125 63.7969 10.8594 65.1719 9.10938C66.5781 7.35938 68.1875 5.85938 70 4.60938C71.7812 3.39062 73.7812 2.45312 76 1.79688C78.2188 1.14062 80.625 0.8125 83.2188 0.8125C85.8438 0.8125 88.2969 1.15625 90.5781 1.84375C92.8906 2.5 94.9688 3.45312 96.8125 4.70312C98.6562 5.89062 100.266 7.32812 101.641 9.01562C103.047 10.7031 104.25 12.5625 105.25 14.5938C106.344 16.9062 107.172 19.4375 107.734 22.1875C108.328 24.9375 108.625 27.8594 108.625 30.9531V40.8906ZM95.2656 30.8594C95.2656 29.1094 95.1719 27.4531 94.9844 25.8906C94.8281 24.2969 94.5625 22.8281 94.1875 21.4844C93.7188 19.7969 93.0938 18.2969 92.3125 16.9844C91.5312 15.6406 90.6094 14.5469 89.5469 13.7031C88.7031 13.0781 87.75 12.5937 86.6875 12.25C85.6562 11.9063 84.5 11.7344 83.2188 11.7344C82 11.7344 80.8906 11.8906 79.8906 12.2031C78.9219 12.5156 78.0469 12.9687 77.2656 13.5625C76.2031 14.4375 75.2969 15.5312 74.5469 16.8438C73.8281 18.1562 73.2656 19.6875 72.8594 21.4375C72.5469 22.7812 72.3125 24.25 72.1562 25.8438C72.0312 27.4375 71.9688 29.1094 71.9688 30.8594V40.8906C71.9688 42.5469 72.0312 44.1406 72.1562 45.6719C72.2812 47.2031 72.5 48.625 72.8125 49.9375C73.1562 51.5938 73.6562 53.1094 74.3125 54.4844C75 55.8281 75.7969 56.9219 76.7031 57.7656C77.5469 58.5156 78.5 59.0938 79.5625 59.5C80.6562 59.9062 81.8906 60.1094 83.2656 60.1094C84.5781 60.1094 85.7812 59.9219 86.875 59.5469C87.9688 59.1719 88.9375 58.625 89.7812 57.9062C90.8438 57.0312 91.7344 55.9375 92.4531 54.625C93.2031 53.2812 93.7969 51.7656 94.2344 50.0781C94.5781 48.7656 94.8281 47.3281 94.9844 45.7656C95.1719 44.2031 95.2656 42.5781 95.2656 40.8906V30.8594ZM163.656 70H150.531L131.547 25.9844V70H118.281V1.75H131.547L150.391 45.5781L150.438 1.75H163.656V70ZM226.469 12.4844H205.422V70H192.203V12.4844H171.438V1.75H226.469V12.4844ZM267.531 55.75H247.047L243.016 70H229.141L251.5 1.75H263.453L285.391 70H271.516L267.531 55.75ZM250.281 44.5469H264.438L257.453 19.4219L250.281 44.5469ZM341.781 12.4844H320.734V70H307.516V12.4844H286.75V1.75H341.781V12.4844ZM396.906 40.8906C396.906 43.8281 396.641 46.625 396.109 49.2812C395.578 51.9062 394.812 54.3438 393.812 56.5938C392.75 58.8438 391.438 60.9062 389.875 62.7812C388.312 64.6562 386.531 66.2188 384.531 67.4688C382.719 68.5625 380.719 69.4062 378.531 70C376.375 70.625 374.047 70.9375 371.547 70.9375C368.891 70.9375 366.438 70.5938 364.188 69.9062C361.938 69.2188 359.891 68.25 358.047 67C356.234 65.6875 354.609 64.1094 353.172 62.2656C351.734 60.3906 350.531 58.2812 349.562 55.9375C348.688 53.7812 348.016 51.4375 347.547 48.9062C347.109 46.375 346.891 43.7031 346.891 40.8906V30.9531C346.891 27.9531 347.141 25.1094 347.641 22.4219C348.172 19.7344 348.938 17.25 349.938 14.9688C350.906 12.8125 352.078 10.8594 353.453 9.10938C354.859 7.35938 356.469 5.85938 358.281 4.60938C360.062 3.39062 362.062 2.45312 364.281 1.79688C366.5 1.14062 368.906 0.8125 371.5 0.8125C374.125 0.8125 376.578 1.15625 378.859 1.84375C381.172 2.5 383.25 3.45312 385.094 4.70312C386.938 5.89062 388.547 7.32812 389.922 9.01562C391.328 10.7031 392.531 12.5625 393.531 14.5938C394.625 16.9062 395.453 19.4375 396.016 22.1875C396.609 24.9375 396.906 27.8594 396.906 30.9531V40.8906ZM383.547 30.8594C383.547 29.1094 383.453 27.4531 383.266 25.8906C383.109 24.2969 382.844 22.8281 382.469 21.4844C382 19.7969 381.375 18.2969 380.594 16.9844C379.812 15.6406 378.891 14.5469 377.828 13.7031C376.984 13.0781 376.031 12.5937 374.969 12.25C373.938 11.9063 372.781 11.7344 371.5 11.7344C370.281 11.7344 369.172 11.8906 368.172 12.2031C367.203 12.5156 366.328 12.9687 365.547 13.5625C364.484 14.4375 363.578 15.5312 362.828 16.8438C362.109 18.1562 361.547 19.6875 361.141 21.4375C360.828 22.7812 360.594 24.25 360.438 25.8438C360.312 27.4375 360.25 29.1094 360.25 30.8594V40.8906C360.25 42.5469 360.312 44.1406 360.438 45.6719C360.562 47.2031 360.781 48.625 361.094 49.9375C361.438 51.5938 361.938 53.1094 362.594 54.4844C363.281 55.8281 364.078 56.9219 364.984 57.7656C365.828 58.5156 366.781 59.0938 367.844 59.5C368.938 59.9062 370.172 60.1094 371.547 60.1094C372.859 60.1094 374.062 59.9219 375.156 59.5469C376.25 59.1719 377.219 58.625 378.062 57.9062C379.125 57.0312 380.016 55.9375 380.734 54.625C381.484 53.2812 382.078 51.7656 382.516 50.0781C382.859 48.7656 383.109 47.3281 383.266 45.7656C383.453 44.2031 383.547 42.5781 383.547 40.8906V30.8594Z" fill="black"/>
</svg>
