<svg width="150" height="150" viewBox="0 0 150 150" fill="none" xmlns="http://www.w3.org/2000/svg">
<path d="M59.7844 13.6763V20.1269H43.2896V0.146729H59.7844V7.21606H50.359V13.6763H59.7844ZM76.7405 7.21606H83.33V0.146729H66.8335C66.8335 0.146729 66.8335 3.69517 66.8335 7.21606C69.0404 9.423 70.1912 10.4794 73.3831 13.6713C71.5172 13.6713 66.8335 13.6775 66.8335 13.6775V20.1269H83.33V13.6763L76.7405 7.21606ZM100.121 7.21606H106.71V0.146729H90.2139C90.2139 0.146729 90.2139 3.69517 90.2139 7.21606C92.4202 9.423 93.5716 10.4794 96.7632 13.6713C94.8984 13.6713 90.2139 13.6775 90.2139 13.6775V20.1269H106.71V13.6763L100.121 7.21606ZM128.436 29.6226L118.416 138.163L74.9997 149.853L31.5829 138.163L21.564 29.6226H128.436ZM108.245 51.6925H74.9605H41.0874L42.7072 64.7997H74.9605H76.7722L74.9605 65.5538L43.8861 78.4962L44.9168 91.3078L74.9605 91.4053L91.0629 91.4566L90.0313 108.54L74.9605 112.783V112.77L74.8368 112.804L60.281 109.129L59.3977 98.5253H59.3496H45.8481H45.8007L47.5679 118.997L74.9605 127.097V127.082L75.0097 127.097L102.256 119.144L105.791 78.4965H74.9605H74.8843L74.9605 78.4637L106.919 64.7999L108.245 51.6925Z" fill="black"/>
</svg>
