<svg width="628" height="88" viewBox="0 0 628 88" fill="none" xmlns="http://www.w3.org/2000/svg">
<path d="M41.5312 57.0938H13.5V76.3594H46.2656V87H0.28125V18.75H46.125V29.4844H13.5V46.6875H41.5312V57.0938ZM80.2969 43.2188L92.4375 18.75H107.906L88.6875 52.5938L108.375 87H93L80.4844 62.1562L68.0156 87H52.4531L72.1406 52.5938L52.9688 18.75H68.3438L80.2969 43.2188ZM128.859 61.9688V87H115.688V18.75H139.031C142.75 18.75 146.109 19.2969 149.109 20.3906C152.109 21.4531 154.672 22.9375 156.797 24.8438C158.891 26.7812 160.5 29.0938 161.625 31.7812C162.781 34.4688 163.359 37.4531 163.359 40.7344C163.359 43.7969 162.781 46.625 161.625 49.2188C160.5 51.8125 158.891 54.0469 156.797 55.9219C154.672 57.8281 152.109 59.3125 149.109 60.375C146.109 61.4375 142.75 61.9688 139.031 61.9688H128.859ZM128.859 51.2812H139.031C140.906 51.2812 142.531 51 143.906 50.4375C145.281 49.875 146.438 49.1094 147.375 48.1406C148.281 47.1719 148.953 46.0625 149.391 44.8125C149.859 43.5312 150.094 42.2031 150.094 40.8281C150.094 39.2344 149.859 37.75 149.391 36.375C148.953 35 148.281 33.7969 147.375 32.7656C146.438 31.7344 145.281 30.9219 143.906 30.3281C142.531 29.7344 140.906 29.4375 139.031 29.4375H128.859V51.2812ZM214.5 57.0938H186.469V76.3594H219.234V87H173.25V18.75H219.094V29.4844H186.469V46.6875H214.5V57.0938ZM253.312 61.5H243.328V87H230.156V18.75H253.031C256.812 18.75 260.234 19.2031 263.297 20.1094C266.359 20.9844 268.984 22.2812 271.172 24C273.328 25.7188 274.984 27.8594 276.141 30.4219C277.328 32.9844 277.922 35.9531 277.922 39.3281C277.922 41.7656 277.625 43.9688 277.031 45.9375C276.469 47.875 275.656 49.6094 274.594 51.1406C273.5 52.7031 272.188 54.0625 270.656 55.2188C269.156 56.375 267.469 57.375 265.594 58.2188L280.266 86.3906V87H266.156L253.312 61.5ZM243.328 50.8125H253.078C255.109 50.8125 256.891 50.5312 258.422 49.9688C259.984 49.375 261.25 48.5312 262.219 47.4375C263.031 46.5625 263.641 45.5156 264.047 44.2969C264.484 43.0781 264.703 41.7188 264.703 40.2188C264.703 38.4062 264.422 36.8125 263.859 35.4375C263.328 34.0312 262.516 32.875 261.422 31.9688C260.453 31.1563 259.266 30.5312 257.859 30.0938C256.453 29.6563 254.844 29.4375 253.031 29.4375H243.328V50.8125ZM290.719 18.75H330.188V29.3906H316.875V76.4062H330.188V87H290.719V76.4062H303.703V29.3906H290.719V18.75ZM387.469 57.0938H359.438V76.3594H392.203V87H346.219V18.75H392.062V29.4844H359.438V46.6875H387.469V57.0938ZM387 11.3906V12.7031H376.641L369.422 6.75L362.25 12.7031H352.078V11.2969L365.672 0H373.219L387 11.3906ZM448.125 87H435L416.016 42.9844V87H402.75V18.75H416.016L434.859 62.5781L434.906 18.75H448.125V87ZM508.172 65.625C507.953 69.0625 507.203 72.1562 505.922 74.9062C504.672 77.6562 502.984 80 500.859 81.9375C498.734 83.875 496.203 85.375 493.266 86.4375C490.328 87.4688 487.078 87.9844 483.516 87.9844C480.703 87.9844 478.094 87.625 475.688 86.9062C473.312 86.1562 471.172 85.0938 469.266 83.7188C467.516 82.4375 465.953 80.8906 464.578 79.0781C463.234 77.2656 462.094 75.2656 461.156 73.0781C460.25 70.8906 459.547 68.4844 459.047 65.8594C458.578 63.2344 458.344 60.4531 458.344 57.5156V48.3281C458.344 45.5781 458.562 42.9688 459 40.5C459.438 38 460.094 35.6875 460.969 33.5625C461.969 30.9688 463.281 28.6562 464.906 26.625C466.531 24.5938 468.375 22.875 470.438 21.4688C472.281 20.2813 474.297 19.375 476.484 18.75C478.703 18.0938 481.078 17.7656 483.609 17.7656C487.359 17.7656 490.688 18.2969 493.594 19.3594C496.531 20.4219 499.031 21.9375 501.094 23.9062C503.156 25.875 504.781 28.2812 505.969 31.125C507.156 33.9688 507.906 37.1719 508.219 40.7344H495.094C494.969 38.7031 494.656 36.9219 494.156 35.3906C493.688 33.8594 493 32.5781 492.094 31.5469C491.156 30.5469 489.984 29.7969 488.578 29.2969C487.203 28.7656 485.547 28.5 483.609 28.5C482.578 28.5 481.609 28.6094 480.703 28.8281C479.828 29.0469 479.016 29.375 478.266 29.8125C476.984 30.5625 475.891 31.6406 474.984 33.0469C474.109 34.4219 473.406 36.0312 472.875 37.875C472.469 39.3125 472.172 40.9062 471.984 42.6562C471.797 44.375 471.703 46.2344 471.703 48.2344V57.5156C471.703 60.2344 471.844 62.6719 472.125 64.8281C472.438 66.9531 472.906 68.8125 473.531 70.4062C473.969 71.5 474.484 72.4688 475.078 73.3125C475.703 74.1562 476.406 74.8594 477.188 75.4219C478.031 76.0469 478.969 76.5156 480 76.8281C481.062 77.1094 482.234 77.25 483.516 77.25C485.234 77.25 486.781 77.0312 488.156 76.5938C489.531 76.1562 490.703 75.4688 491.672 74.5312C492.641 73.5938 493.406 72.3906 493.969 70.9219C494.531 69.4531 494.875 67.6875 495 65.625H508.172ZM521.344 18.75H560.812V29.3906H547.5V76.4062H560.812V87H521.344V76.4062H534.328V29.3906H521.344V18.75ZM609.656 72.75H589.172L585.141 87H571.266L593.625 18.75H605.578L627.516 87H613.641L609.656 72.75ZM592.406 61.5469H606.562L599.578 36.4219L592.406 61.5469Z" fill="black"/>
</svg>
