<svg width="451" height="111" viewBox="0 0 451 111" fill="none" xmlns="http://www.w3.org/2000/svg">
<path d="M42.8281 60.7344H13.5781V89H0.359375V20.75H46.4844V31.4844H13.5781V50.0469H42.8281V60.7344ZM104.797 59.8906C104.797 62.8281 104.531 65.625 104 68.2812C103.469 70.9062 102.703 73.3438 101.703 75.5938C100.641 77.8438 99.3281 79.9062 97.7656 81.7812C96.2031 83.6562 94.4219 85.2188 92.4219 86.4688C90.6094 87.5625 88.6094 88.4062 86.4219 89C84.2656 89.625 81.9375 89.9375 79.4375 89.9375C76.7812 89.9375 74.3281 89.5938 72.0781 88.9062C69.8281 88.2188 67.7812 87.25 65.9375 86C64.125 84.6875 62.5 83.1094 61.0625 81.2656C59.625 79.3906 58.4219 77.2812 57.4531 74.9375C56.5781 72.7812 55.9062 70.4375 55.4375 67.9062C55 65.375 54.7812 62.7031 54.7812 59.8906V49.9531C54.7812 46.9531 55.0312 44.1094 55.5312 41.4219C56.0625 38.7344 56.8281 36.25 57.8281 33.9688C58.7969 31.8125 59.9688 29.8594 61.3438 28.1094C62.75 26.3594 64.3594 24.8594 66.1719 23.6094C67.9531 22.3906 69.9531 21.4531 72.1719 20.7969C74.3906 20.1406 76.7969 19.8125 79.3906 19.8125C82.0156 19.8125 84.4688 20.1562 86.75 20.8438C89.0625 21.5 91.1406 22.4531 92.9844 23.7031C94.8281 24.8906 96.4375 26.3281 97.8125 28.0156C99.2188 29.7031 100.422 31.5625 101.422 33.5938C102.516 35.9062 103.344 38.4375 103.906 41.1875C104.5 43.9375 104.797 46.8594 104.797 49.9531V59.8906ZM91.4375 49.8594C91.4375 48.1094 91.3438 46.4531 91.1562 44.8906C91 43.2969 90.7344 41.8281 90.3594 40.4844C89.8906 38.7969 89.2656 37.2969 88.4844 35.9844C87.7031 34.6406 86.7812 33.5469 85.7188 32.7031C84.875 32.0781 83.9219 31.5937 82.8594 31.25C81.8281 30.9063 80.6719 30.7344 79.3906 30.7344C78.1719 30.7344 77.0625 30.8906 76.0625 31.2031C75.0938 31.5156 74.2188 31.9687 73.4375 32.5625C72.375 33.4375 71.4688 34.5312 70.7188 35.8438C70 37.1562 69.4375 38.6875 69.0312 40.4375C68.7188 41.7812 68.4844 43.25 68.3281 44.8438C68.2031 46.4375 68.1406 48.1094 68.1406 49.8594V59.8906C68.1406 61.5469 68.2031 63.1406 68.3281 64.6719C68.4531 66.2031 68.6719 67.625 68.9844 68.9375C69.3281 70.5938 69.8281 72.1094 70.4844 73.4844C71.1719 74.8281 71.9688 75.9219 72.875 76.7656C73.7188 77.5156 74.6719 78.0938 75.7344 78.5C76.8281 78.9062 78.0625 79.1094 79.4375 79.1094C80.75 79.1094 81.9531 78.9219 83.0469 78.5469C84.1406 78.1719 85.1094 77.625 85.9531 76.9062C87.0156 76.0312 87.9062 74.9375 88.625 73.625C89.375 72.2812 89.9688 70.7656 90.4062 69.0781C90.75 67.7656 91 66.3281 91.1562 64.7656C91.3438 63.2031 91.4375 61.5781 91.4375 59.8906V49.8594ZM137.984 63.5H128V89H114.828V20.75H137.703C141.484 20.75 144.906 21.2031 147.969 22.1094C151.031 22.9844 153.656 24.2812 155.844 26C158 27.7188 159.656 29.8594 160.812 32.4219C162 34.9844 162.594 37.9531 162.594 41.3281C162.594 43.7656 162.297 45.9688 161.703 47.9375C161.141 49.875 160.328 51.6094 159.266 53.1406C158.172 54.7031 156.859 56.0625 155.328 57.2188C153.828 58.375 152.141 59.375 150.266 60.2188L164.938 88.3906V89H150.828L137.984 63.5ZM128 52.8125H137.75C139.781 52.8125 141.562 52.5312 143.094 51.9688C144.656 51.375 145.922 50.5312 146.891 49.4375C147.703 48.5625 148.312 47.5156 148.719 46.2969C149.156 45.0781 149.375 43.7188 149.375 42.2188C149.375 40.4062 149.094 38.8125 148.531 37.4375C148 36.0312 147.188 34.875 146.094 33.9688C145.125 33.1562 143.938 32.5312 142.531 32.0938C141.125 31.6563 139.516 31.4375 137.703 31.4375H128V52.8125ZM188.656 20.75L195.125 46.3906L202.484 20.75H218.844V89H206.75V68.7969L207.312 36.875L198.359 66.5H191.844L183.828 38.1406L184.391 68.7969V89H172.297V20.75H188.656ZM263.703 74.75H243.219L239.188 89H225.312L247.672 20.75H259.625L281.562 89H267.688L263.703 74.75ZM246.453 63.5469H260.609L253.625 38.4219L246.453 63.5469ZM335.188 67.625C334.969 71.0625 334.219 74.1562 332.938 76.9062C331.688 79.6562 330 82 327.875 83.9375C325.75 85.875 323.219 87.375 320.281 88.4375C317.344 89.4688 314.094 89.9844 310.531 89.9844C307.719 89.9844 305.109 89.625 302.703 88.9062C300.328 88.1562 298.188 87.0938 296.281 85.7188C294.531 84.4375 292.969 82.8906 291.594 81.0781C290.25 79.2656 289.109 77.2656 288.172 75.0781C287.266 72.8906 286.562 70.4844 286.062 67.8594C285.594 65.2344 285.359 62.4531 285.359 59.5156V50.3281C285.359 47.5781 285.578 44.9688 286.016 42.5C286.453 40 287.109 37.6875 287.984 35.5625C288.984 32.9688 290.297 30.6562 291.922 28.625C293.547 26.5938 295.391 24.875 297.453 23.4688C299.297 22.2813 301.312 21.375 303.5 20.75C305.719 20.0938 308.094 19.7656 310.625 19.7656C314.375 19.7656 317.703 20.2969 320.609 21.3594C323.547 22.4219 326.047 23.9375 328.109 25.9062C330.172 27.875 331.797 30.2812 332.984 33.125C334.172 35.9688 334.922 39.1719 335.234 42.7344H322.109C321.984 40.7031 321.672 38.9219 321.172 37.3906C320.703 35.8594 320.016 34.5781 319.109 33.5469C318.172 32.5469 317 31.7969 315.594 31.2969C314.219 30.7656 312.562 30.5 310.625 30.5C309.594 30.5 308.625 30.6094 307.719 30.8281C306.844 31.0469 306.031 31.375 305.281 31.8125C304 32.5625 302.906 33.6406 302 35.0469C301.125 36.4219 300.422 38.0312 299.891 39.875C299.484 41.3125 299.188 42.9062 299 44.6562C298.812 46.375 298.719 48.2344 298.719 50.2344V59.5156C298.719 62.2344 298.859 64.6719 299.141 66.8281C299.453 68.9531 299.922 70.8125 300.547 72.4062C300.984 73.5 301.5 74.4688 302.094 75.3125C302.719 76.1562 303.422 76.8594 304.203 77.4219C305.047 78.0469 305.984 78.5156 307.016 78.8281C308.078 79.1094 309.25 79.25 310.531 79.25C312.25 79.25 313.797 79.0312 315.172 78.5938C316.547 78.1562 317.719 77.4688 318.688 76.5312C319.656 75.5938 320.422 74.3906 320.984 72.9219C321.547 71.4531 321.891 69.6875 322.016 67.625H335.188ZM315.734 88.5312L315.219 91.1562C316.094 91.3125 316.953 91.5625 317.797 91.9062C318.641 92.2812 319.391 92.7812 320.047 93.4062C320.703 94.0625 321.234 94.8594 321.641 95.7969C322.047 96.7656 322.25 97.9219 322.25 99.2656C322.25 100.922 321.906 102.422 321.219 103.766C320.531 105.109 319.516 106.25 318.172 107.188C316.797 108.156 315.109 108.906 313.109 109.438C311.109 109.969 308.781 110.234 306.125 110.234L305.797 102.734C306.578 102.734 307.297 102.656 307.953 102.5C308.641 102.375 309.234 102.172 309.734 101.891C310.234 101.578 310.625 101.172 310.906 100.672C311.219 100.172 311.375 99.5625 311.375 98.8438C311.375 98.2188 311.25 97.6875 311 97.25C310.75 96.8125 310.359 96.4531 309.828 96.1719C309.297 95.8594 308.594 95.625 307.719 95.4688C306.844 95.3438 305.797 95.2344 304.578 95.1406L306.031 88.5312H315.734ZM379.016 74.75H358.531L354.5 89H340.625L362.984 20.75H374.938L396.875 89H383L379.016 74.75ZM361.766 63.5469H375.922L368.938 38.4219L361.766 63.5469ZM386.047 1.76562C386.047 3.17188 385.797 4.5625 385.297 5.9375C384.828 7.3125 384.156 8.53125 383.281 9.59375C382.375 10.6875 381.297 11.5625 380.047 12.2188C378.828 12.875 377.453 13.2031 375.922 13.2031C374.422 13.2031 373.109 13 371.984 12.5938C370.891 12.1563 369.859 11.6719 368.891 11.1406C367.891 10.6406 366.906 10.1875 365.938 9.78125C364.969 9.34375 363.875 9.125 362.656 9.125C362.094 9.125 361.562 9.23437 361.062 9.45312C360.562 9.64062 360.125 9.9375 359.75 10.3438C359.344 10.7188 359.031 11.2031 358.812 11.7969C358.594 12.3594 358.484 13 358.484 13.7188L351.922 12.3125C351.922 10.9375 352.156 9.5625 352.625 8.1875C353.125 6.8125 353.812 5.57812 354.688 4.48438C355.562 3.39063 356.609 2.5 357.828 1.8125C359.078 1.125 360.469 0.78125 362 0.78125C363.25 0.78125 364.422 1 365.516 1.4375C366.609 1.84375 367.688 2.29687 368.75 2.79688C369.781 3.32812 370.828 3.8125 371.891 4.25C372.953 4.65625 374.078 4.85938 375.266 4.85938C375.859 4.85938 376.422 4.75 376.953 4.53125C377.516 4.28125 377.984 3.9375 378.359 3.5C378.703 3.125 378.969 2.67187 379.156 2.14062C379.375 1.57812 379.484 0.96875 379.484 0.3125L386.047 1.76562ZM450.734 59.8906C450.734 62.8281 450.469 65.625 449.938 68.2812C449.406 70.9062 448.641 73.3438 447.641 75.5938C446.578 77.8438 445.266 79.9062 443.703 81.7812C442.141 83.6562 440.359 85.2188 438.359 86.4688C436.547 87.5625 434.547 88.4062 432.359 89C430.203 89.625 427.875 89.9375 425.375 89.9375C422.719 89.9375 420.266 89.5938 418.016 88.9062C415.766 88.2188 413.719 87.25 411.875 86C410.062 84.6875 408.438 83.1094 407 81.2656C405.562 79.3906 404.359 77.2812 403.391 74.9375C402.516 72.7812 401.844 70.4375 401.375 67.9062C400.938 65.375 400.719 62.7031 400.719 59.8906V49.9531C400.719 46.9531 400.969 44.1094 401.469 41.4219C402 38.7344 402.766 36.25 403.766 33.9688C404.734 31.8125 405.906 29.8594 407.281 28.1094C408.688 26.3594 410.297 24.8594 412.109 23.6094C413.891 22.3906 415.891 21.4531 418.109 20.7969C420.328 20.1406 422.734 19.8125 425.328 19.8125C427.953 19.8125 430.406 20.1562 432.688 20.8438C435 21.5 437.078 22.4531 438.922 23.7031C440.766 24.8906 442.375 26.3281 443.75 28.0156C445.156 29.7031 446.359 31.5625 447.359 33.5938C448.453 35.9062 449.281 38.4375 449.844 41.1875C450.438 43.9375 450.734 46.8594 450.734 49.9531V59.8906ZM437.375 49.8594C437.375 48.1094 437.281 46.4531 437.094 44.8906C436.938 43.2969 436.672 41.8281 436.297 40.4844C435.828 38.7969 435.203 37.2969 434.422 35.9844C433.641 34.6406 432.719 33.5469 431.656 32.7031C430.812 32.0781 429.859 31.5937 428.797 31.25C427.766 30.9063 426.609 30.7344 425.328 30.7344C424.109 30.7344 423 30.8906 422 31.2031C421.031 31.5156 420.156 31.9687 419.375 32.5625C418.312 33.4375 417.406 34.5312 416.656 35.8438C415.938 37.1562 415.375 38.6875 414.969 40.4375C414.656 41.7812 414.422 43.25 414.266 44.8438C414.141 46.4375 414.078 48.1094 414.078 49.8594V59.8906C414.078 61.5469 414.141 63.1406 414.266 64.6719C414.391 66.2031 414.609 67.625 414.922 68.9375C415.266 70.5938 415.766 72.1094 416.422 73.4844C417.109 74.8281 417.906 75.9219 418.812 76.7656C419.656 77.5156 420.609 78.0938 421.672 78.5C422.766 78.9062 424 79.1094 425.375 79.1094C426.688 79.1094 427.891 78.9219 428.984 78.5469C430.078 78.1719 431.047 77.625 431.891 76.9062C432.953 76.0312 433.844 74.9375 434.562 73.625C435.312 72.2812 435.906 70.7656 436.344 69.0781C436.688 67.7656 436.938 66.3281 437.094 64.7656C437.281 63.2031 437.375 61.5781 437.375 59.8906V49.8594Z" fill="black"/>
</svg>
