<svg width="319" height="36" viewBox="0 0 319 36" fill="none" xmlns="http://www.w3.org/2000/svg">
<path d="M16.76 35.672C13.4 35.672 10.472 34.952 7.976 33.512C5.48 32.072 3.56 30.072 2.216 27.512C0.872 24.952 0.2 22.024 0.2 18.728C0.2 14.888 0.856 11.64 2.168 8.984C3.512 6.328 5.368 4.328 7.736 2.984C10.104 1.64 12.84 0.967998 15.944 0.967998C17.96 0.967998 19.896 1.32 21.752 2.024C22.232 1.8 22.92 1.576 23.816 1.352C24.744 1.128 25.464 0.999999 25.976 0.967998C26.904 3.336 27.368 6.952 27.368 11.816H22.712C22.392 9.768 21.592 8.184 20.312 7.064C19.064 5.944 17.56 5.384 15.8 5.384C13.688 5.384 12.024 6.296 10.808 8.12C9.624 9.912 9.032 13.032 9.032 17.48C9.032 22.408 9.624 25.896 10.808 27.944C11.992 29.992 13.8 31.016 16.232 31.016C17.128 31.016 17.88 30.92 18.488 30.728C19.096 30.536 19.608 30.216 20.024 29.768V24.296C20.024 23.464 19.656 22.872 18.92 22.52C18.216 22.136 17.096 21.944 15.56 21.944C15.56 21.368 15.672 20.696 15.896 19.928C16.12 19.16 16.392 18.6 16.712 18.248H27.08C28.328 18.248 29.192 18.616 29.672 19.352C30.152 20.088 30.392 20.792 30.392 21.464C30.392 21.784 30.312 22.072 30.152 22.328C29 22.328 28.104 22.456 27.464 22.712V28.232C27.464 29.256 27.64 29.976 27.992 30.392C28.216 30.616 28.328 30.904 28.328 31.256C28.328 31.832 27.8 32.472 26.744 33.176C25.688 33.88 24.264 34.472 22.472 34.952C20.712 35.432 18.808 35.672 16.76 35.672ZM30.923 35C30.603 34.616 30.347 34.152 30.155 33.608C29.963 33.064 29.867 32.504 29.867 31.928C30.923 31.928 31.659 31.752 32.075 31.4C32.523 31.048 32.747 30.424 32.747 29.528V6.968C32.747 6.072 32.523 5.448 32.075 5.096C31.659 4.712 30.923 4.52 29.867 4.52C29.867 3.976 29.963 3.432 30.155 2.888C30.347 2.344 30.603 1.88 30.923 1.496H42.587C42.907 1.88 43.163 2.344 43.355 2.888C43.547 3.432 43.643 3.976 43.643 4.52C42.587 4.52 41.835 4.712 41.387 5.096C40.971 5.448 40.763 6.072 40.763 6.968V29.528C40.763 30.424 40.971 31.048 41.387 31.4C41.835 31.752 42.587 31.928 43.643 31.928C43.643 32.504 43.547 33.064 43.355 33.608C43.163 34.152 42.907 34.616 42.587 35H30.923ZM44.9739 35C44.6219 34.616 44.3499 34.152 44.1579 33.608C43.9659 33.064 43.8699 32.504 43.8699 31.928C44.9579 31.928 45.7259 31.752 46.1739 31.4C46.6219 31.048 46.8459 30.424 46.8459 29.528V6.968C46.8459 6.072 46.6219 5.448 46.1739 5.096C45.7259 4.712 44.9579 4.52 43.8699 4.52C43.8699 3.944 43.9659 3.4 44.1579 2.888C44.3499 2.344 44.6219 1.88 44.9739 1.496H56.8299C57.5339 2.232 57.8859 3.24 57.8859 4.52C56.7979 4.52 55.9979 4.712 55.4859 5.096C54.9739 5.48 54.7179 6.104 54.7179 6.968V30.92H56.4939C58.8299 30.92 60.5579 30.152 61.6779 28.616C62.8299 27.08 63.4059 24.92 63.4059 22.136H66.7659C67.3099 22.552 67.7419 23.448 68.0619 24.824C68.3819 26.2 68.5419 27.544 68.5419 28.856C68.5419 30.872 68.1899 32.408 67.4859 33.464C66.7819 34.488 65.6299 35 64.0299 35H44.9739ZM94.0201 1.496C94.5321 2.296 94.7881 3.304 94.7881 4.52C93.6681 4.52 92.7881 4.696 92.1481 5.048C91.5081 5.368 91.0441 5.944 90.7561 6.776L82.5961 30.728C82.0201 32.392 81.3481 33.576 80.5801 34.28C79.8441 34.984 78.7721 35.336 77.3641 35.336H75.8761L64.6921 6.776C64.3721 5.944 63.9081 5.368 63.3001 5.048C62.6921 4.696 61.8281 4.52 60.7081 4.52C60.7081 3.368 60.9641 2.36 61.4761 1.496H75.6841C76.2601 2.52 76.5481 3.528 76.5481 4.52C75.6521 4.52 74.9481 4.712 74.4361 5.096C73.9561 5.48 73.7161 6.008 73.7161 6.68C73.7161 6.872 73.8121 7.256 74.0041 7.832L78.0361 20.84L79.4761 26.12L80.9161 20.936L84.7561 7.688C84.8841 7.176 84.9481 6.84 84.9481 6.68C84.9481 6.008 84.7081 5.48 84.2281 5.096C83.7481 4.712 83.0441 4.52 82.1161 4.52C82.1161 3.88 82.1641 3.336 82.2601 2.888C82.3881 2.408 82.5961 1.944 82.8841 1.496H94.0201ZM117.437 28.664C117.757 29.688 118.301 30.488 119.069 31.064C119.837 31.64 120.653 31.928 121.517 31.928C121.517 32.504 121.421 33.064 121.229 33.608C121.037 34.152 120.765 34.616 120.413 35H107.405C107.053 34.616 106.781 34.152 106.589 33.608C106.397 33.064 106.301 32.504 106.301 31.928C108.125 31.928 109.037 31.16 109.037 29.624C109.037 28.984 108.925 28.232 108.701 27.368L108.413 26.36H97.6606L97.3726 27.368C97.0846 28.36 96.9406 29.064 96.9406 29.48C96.9406 31.112 97.9646 31.928 100.013 31.928C100.013 32.504 99.9166 33.064 99.7246 33.608C99.5326 34.152 99.2606 34.616 98.9086 35H88.2046C87.8526 34.616 87.5806 34.152 87.3886 33.608C87.1966 33.064 87.1006 32.504 87.1006 31.928C87.9966 31.928 88.8126 31.672 89.5486 31.16C90.2846 30.616 90.8286 29.832 91.1806 28.808L99.0526 5.576C97.7726 5.16 96.1566 4.952 94.2046 4.952C94.2046 3.576 94.5886 2.424 95.3566 1.496H108.509L117.437 28.664ZM107.357 22.616L103.949 10.712C103.661 9.752 103.293 8.936 102.845 8.264L98.7166 22.616H107.357ZM126.83 29.528C126.83 31.16 127.998 31.976 130.334 31.976C130.334 33.096 129.966 34.104 129.23 35H119.246C118.542 34.136 118.19 33.128 118.19 31.976C119.31 31.976 120.142 31.784 120.686 31.4C121.23 31.016 121.502 30.392 121.502 29.528V6.968C121.502 5.336 120.334 4.52 117.998 4.52C117.998 3.976 118.094 3.432 118.286 2.888C118.478 2.344 118.734 1.88 119.054 1.496H125.726C126.654 1.496 127.582 1.864 128.51 2.6C129.438 3.304 130.318 4.296 131.15 5.576L142.046 22.808V6.968C142.046 6.104 141.758 5.48 141.182 5.096C140.606 4.712 139.758 4.52 138.638 4.52C138.638 3.944 138.734 3.4 138.926 2.888C139.118 2.344 139.39 1.88 139.742 1.496H149.966C150.318 1.88 150.59 2.344 150.782 2.888C150.974 3.432 151.07 3.976 151.07 4.52C149.982 4.52 149.15 4.712 148.574 5.096C148.03 5.48 147.758 6.104 147.758 6.968V35.288H145.838C144.27 35.288 143.118 35.096 142.382 34.712C141.646 34.296 140.942 33.592 140.27 32.6L126.83 12.2V29.528ZM179.297 24.056C179.297 28.184 178.225 31.144 176.081 32.936C173.969 34.728 171.217 35.624 167.825 35.624C166.961 35.624 165.953 35.512 164.801 35.288C163.649 35.096 162.785 34.84 162.209 34.52L160.145 35.624C159.057 34.44 158.145 33.016 157.409 31.352C156.673 29.688 156.305 27.544 156.305 24.92C156.305 23.864 156.385 22.936 156.545 22.136H163.841C163.585 23.256 163.457 24.28 163.457 25.208C163.457 27.096 163.809 28.6 164.513 29.72C165.217 30.84 166.321 31.4 167.825 31.4C168.849 31.4 169.713 31.048 170.417 30.344C171.153 29.64 171.521 28.472 171.521 26.84V7.928C171.521 6.744 171.201 5.896 170.561 5.384C169.921 4.84 168.769 4.568 167.105 4.568C167.105 4.024 167.201 3.48 167.393 2.936C167.585 2.392 167.857 1.928 168.209 1.544H181.361C181.713 1.928 181.985 2.392 182.177 2.936C182.369 3.448 182.465 3.992 182.465 4.568C181.377 4.568 180.577 4.76 180.065 5.144C179.553 5.528 179.297 6.152 179.297 7.016V24.056ZM209.272 21.896C209.272 26.344 208.216 29.752 206.104 32.12C204.024 34.456 200.92 35.624 196.792 35.624C192.632 35.624 189.368 34.488 187 32.216C184.632 29.944 183.448 26.664 183.448 22.376V6.92C183.448 6.056 183.224 5.448 182.776 5.096C182.328 4.712 181.56 4.52 180.472 4.52C180.472 3.304 180.84 2.296 181.576 1.496H193.576C194.312 2.296 194.68 3.304 194.68 4.52C193.592 4.52 192.824 4.712 192.376 5.096C191.928 5.448 191.704 6.056 191.704 6.92V23.384C191.704 25.688 192.184 27.544 193.144 28.952C194.136 30.328 195.64 31.016 197.656 31.016C199.672 31.016 201.128 30.392 202.024 29.144C202.952 27.864 203.416 26.2 203.416 24.152V6.92C203.416 6.056 203.144 5.448 202.6 5.096C202.088 4.712 201.224 4.52 200.008 4.52C200.008 3.24 200.36 2.232 201.064 1.496H211.624C212.328 2.296 212.68 3.304 212.68 4.52C211.464 4.52 210.584 4.712 210.04 5.096C209.528 5.448 209.272 6.056 209.272 6.92V21.896ZM220.355 29.528C220.355 31.16 221.523 31.976 223.859 31.976C223.859 33.096 223.491 34.104 222.755 35H212.771C212.067 34.136 211.715 33.128 211.715 31.976C212.835 31.976 213.667 31.784 214.211 31.4C214.755 31.016 215.027 30.392 215.027 29.528V6.968C215.027 5.336 213.859 4.52 211.523 4.52C211.523 3.976 211.619 3.432 211.811 2.888C212.003 2.344 212.259 1.88 212.579 1.496H219.251C220.179 1.496 221.107 1.864 222.035 2.6C222.963 3.304 223.843 4.296 224.675 5.576L235.571 22.808V6.968C235.571 6.104 235.283 5.48 234.707 5.096C234.131 4.712 233.283 4.52 232.163 4.52C232.163 3.944 232.259 3.4 232.451 2.888C232.643 2.344 232.915 1.88 233.267 1.496H243.491C243.843 1.88 244.115 2.344 244.307 2.888C244.499 3.432 244.595 3.976 244.595 4.52C243.507 4.52 242.675 4.712 242.099 5.096C241.555 5.48 241.283 6.104 241.283 6.968V35.288H239.363C237.795 35.288 236.643 35.096 235.907 34.712C235.171 34.296 234.467 33.592 233.795 32.6L220.355 12.2V29.528ZM245.057 35C244.737 34.616 244.481 34.152 244.289 33.608C244.097 33.064 244.001 32.504 244.001 31.928C245.057 31.928 245.793 31.752 246.209 31.4C246.657 31.048 246.881 30.424 246.881 29.528V6.968C246.881 6.072 246.657 5.448 246.209 5.096C245.793 4.712 245.057 4.52 244.001 4.52C244.001 3.976 244.097 3.432 244.289 2.888C244.481 2.344 244.737 1.88 245.057 1.496H256.721C257.041 1.88 257.297 2.344 257.489 2.888C257.681 3.432 257.777 3.976 257.777 4.52C256.721 4.52 255.969 4.712 255.521 5.096C255.105 5.448 254.897 6.072 254.897 6.968V29.528C254.897 30.424 255.105 31.048 255.521 31.4C255.969 31.752 256.721 31.928 257.777 31.928C257.777 32.504 257.681 33.064 257.489 33.608C257.297 34.152 257.041 34.616 256.721 35H245.057ZM272.788 35.624C269.716 35.624 267.06 34.92 264.82 33.512C262.612 32.072 260.916 30.04 259.732 27.416C258.548 24.792 257.956 21.752 257.956 18.296C257.956 14.68 258.564 11.576 259.78 8.984C260.996 6.36 262.708 4.36 264.916 2.984C267.156 1.608 269.764 0.919998 272.74 0.919998C275.812 0.919998 278.468 1.64 280.708 3.08C282.948 4.52 284.66 6.552 285.844 9.176C287.06 11.768 287.668 14.808 287.668 18.296C287.668 21.88 287.044 24.984 285.796 27.608C284.58 30.2 282.852 32.184 280.612 33.56C278.372 34.936 275.764 35.624 272.788 35.624ZM272.788 32.12C274.548 32.12 275.972 31.112 277.06 29.096C278.18 27.08 278.74 23.416 278.74 18.104C278.74 13.048 278.228 9.512 277.204 7.496C276.18 5.48 274.74 4.472 272.884 4.472C271.124 4.472 269.684 5.48 268.564 7.496C267.476 9.512 266.932 13.16 266.932 18.44C266.932 23.496 267.444 27.048 268.468 29.096C269.524 31.112 270.964 32.12 272.788 32.12ZM314.546 27.608C314.898 28.824 315.346 29.736 315.89 30.344C316.466 30.92 317.202 31.272 318.098 31.4V33.8C317.362 34.824 315.97 35.336 313.922 35.336C312.002 35.336 310.482 35.016 309.362 34.376C308.274 33.736 307.458 32.904 306.914 31.88C306.402 30.824 305.922 29.448 305.474 27.752C304.994 25.864 304.482 24.296 303.938 23.048C303.394 21.8 302.69 21.032 301.826 20.744H298.658V29.528C298.658 30.36 298.962 30.984 299.57 31.4C300.178 31.784 300.978 31.976 301.97 31.976C301.97 33.128 301.618 34.136 300.914 35H288.866C288.13 34.104 287.762 33.096 287.762 31.976C288.85 31.976 289.634 31.784 290.114 31.4C290.626 31.016 290.882 30.392 290.882 29.528V6.968C290.882 6.104 290.626 5.48 290.114 5.096C289.602 4.712 288.802 4.52 287.714 4.52C287.714 3.24 288.034 2.232 288.674 1.496C290.786 1.496 293.154 1.432 295.778 1.304C298.082 1.176 299.89 1.112 301.202 1.112C310.354 1.112 314.93 4.2 314.93 10.376C314.93 15.08 312.434 17.944 307.442 18.968C308.882 19.384 310.258 20.392 311.57 21.992C312.882 23.56 313.874 25.432 314.546 27.608ZM300.77 17.432C302.69 17.432 304.194 16.84 305.282 15.656C306.37 14.44 306.914 12.84 306.914 10.856C306.914 8.808 306.434 7.288 305.474 6.296C304.546 5.272 303.058 4.76 301.01 4.76C299.922 4.76 299.138 4.824 298.658 4.952V17.336C299.234 17.4 299.938 17.432 300.77 17.432Z" fill="black"/>
</svg>
