<svg width="319" height="64" viewBox="0 0 319 64" fill="none" xmlns="http://www.w3.org/2000/svg">
<path d="M16.8475 35.672C13.4875 35.672 10.5595 34.952 8.06349 33.512C5.56749 32.072 3.64749 30.072 2.30349 27.512C0.959494 24.952 0.287494 22.024 0.287494 18.728C0.287494 14.888 0.943494 11.64 2.25549 8.984C3.59949 6.328 5.45549 4.328 7.82349 2.984C10.1915 1.64 12.9275 0.967998 16.0315 0.967998C18.0475 0.967998 19.9835 1.32 21.8395 2.024C22.3195 1.8 23.0075 1.576 23.9035 1.352C24.8315 1.128 25.5515 0.999999 26.0635 0.967998C26.9915 3.336 27.4555 6.952 27.4555 11.816H22.7995C22.4795 9.768 21.6795 8.184 20.3995 7.064C19.1515 5.944 17.6475 5.384 15.8875 5.384C13.7755 5.384 12.1115 6.296 10.8955 8.12C9.71149 9.912 9.11949 13.032 9.11949 17.48C9.11949 22.408 9.71149 25.896 10.8955 27.944C12.0795 29.992 13.8875 31.016 16.3195 31.016C17.2155 31.016 17.9675 30.92 18.5755 30.728C19.1835 30.536 19.6955 30.216 20.1115 29.768V24.296C20.1115 23.464 19.7435 22.872 19.0075 22.52C18.3035 22.136 17.1835 21.944 15.6475 21.944C15.6475 21.368 15.7595 20.696 15.9835 19.928C16.2075 19.16 16.4795 18.6 16.7995 18.248H27.1675C28.4155 18.248 29.2795 18.616 29.7595 19.352C30.2395 20.088 30.4795 20.792 30.4795 21.464C30.4795 21.784 30.3995 22.072 30.2395 22.328C29.0875 22.328 28.1915 22.456 27.5515 22.712V28.232C27.5515 29.256 27.7275 29.976 28.0795 30.392C28.3035 30.616 28.4155 30.904 28.4155 31.256C28.4155 31.832 27.8875 32.472 26.8315 33.176C25.7755 33.88 24.3515 34.472 22.5595 34.952C20.7995 35.432 18.8955 35.672 16.8475 35.672ZM31.0105 35C30.6905 34.616 30.4345 34.152 30.2425 33.608C30.0505 33.064 29.9545 32.504 29.9545 31.928C31.0105 31.928 31.7465 31.752 32.1625 31.4C32.6105 31.048 32.8345 30.424 32.8345 29.528V6.968C32.8345 6.072 32.6105 5.448 32.1625 5.096C31.7465 4.712 31.0105 4.52 29.9545 4.52C29.9545 3.976 30.0505 3.432 30.2425 2.888C30.4345 2.344 30.6905 1.88 31.0105 1.496H42.6745C42.9945 1.88 43.2505 2.344 43.4425 2.888C43.6345 3.432 43.7305 3.976 43.7305 4.52C42.6745 4.52 41.9225 4.712 41.4745 5.096C41.0585 5.448 40.8505 6.072 40.8505 6.968V29.528C40.8505 30.424 41.0585 31.048 41.4745 31.4C41.9225 31.752 42.6745 31.928 43.7305 31.928C43.7305 32.504 43.6345 33.064 43.4425 33.608C43.2505 34.152 42.9945 34.616 42.6745 35H31.0105ZM45.0614 35C44.7094 34.616 44.4374 34.152 44.2454 33.608C44.0534 33.064 43.9574 32.504 43.9574 31.928C45.0454 31.928 45.8134 31.752 46.2614 31.4C46.7094 31.048 46.9334 30.424 46.9334 29.528V6.968C46.9334 6.072 46.7094 5.448 46.2614 5.096C45.8134 4.712 45.0454 4.52 43.9574 4.52C43.9574 3.944 44.0534 3.4 44.2454 2.888C44.4374 2.344 44.7094 1.88 45.0614 1.496H56.9174C57.6214 2.232 57.9734 3.24 57.9734 4.52C56.8854 4.52 56.0854 4.712 55.5734 5.096C55.0614 5.48 54.8054 6.104 54.8054 6.968V30.92H56.5814C58.9174 30.92 60.6454 30.152 61.7654 28.616C62.9174 27.08 63.4934 24.92 63.4934 22.136H66.8534C67.3974 22.552 67.8294 23.448 68.1494 24.824C68.4694 26.2 68.6294 27.544 68.6294 28.856C68.6294 30.872 68.2774 32.408 67.5734 33.464C66.8694 34.488 65.7174 35 64.1174 35H45.0614ZM94.1076 1.496C94.6196 2.296 94.8756 3.304 94.8756 4.52C93.7556 4.52 92.8756 4.696 92.2356 5.048C91.5956 5.368 91.1316 5.944 90.8436 6.776L82.6836 30.728C82.1076 32.392 81.4356 33.576 80.6676 34.28C79.9316 34.984 78.8596 35.336 77.4516 35.336H75.9636L64.7796 6.776C64.4596 5.944 63.9956 5.368 63.3876 5.048C62.7796 4.696 61.9156 4.52 60.7956 4.52C60.7956 3.368 61.0516 2.36 61.5636 1.496H75.7716C76.3476 2.52 76.6356 3.528 76.6356 4.52C75.7396 4.52 75.0356 4.712 74.5236 5.096C74.0436 5.48 73.8036 6.008 73.8036 6.68C73.8036 6.872 73.8996 7.256 74.0916 7.832L78.1236 20.84L79.5636 26.12L81.0036 20.936L84.8436 7.688C84.9716 7.176 85.0356 6.84 85.0356 6.68C85.0356 6.008 84.7956 5.48 84.3156 5.096C83.8356 4.712 83.1316 4.52 82.2036 4.52C82.2036 3.88 82.2516 3.336 82.3476 2.888C82.4756 2.408 82.6836 1.944 82.9716 1.496H94.1076ZM117.524 28.664C117.844 29.688 118.388 30.488 119.156 31.064C119.924 31.64 120.74 31.928 121.604 31.928C121.604 32.504 121.508 33.064 121.316 33.608C121.124 34.152 120.852 34.616 120.5 35H107.492C107.14 34.616 106.868 34.152 106.676 33.608C106.484 33.064 106.388 32.504 106.388 31.928C108.212 31.928 109.124 31.16 109.124 29.624C109.124 28.984 109.012 28.232 108.788 27.368L108.5 26.36H97.7481L97.4601 27.368C97.1721 28.36 97.0281 29.064 97.0281 29.48C97.0281 31.112 98.0521 31.928 100.1 31.928C100.1 32.504 100.004 33.064 99.8121 33.608C99.6201 34.152 99.3481 34.616 98.9961 35H88.2921C87.9401 34.616 87.6681 34.152 87.4761 33.608C87.2841 33.064 87.1881 32.504 87.1881 31.928C88.0841 31.928 88.9001 31.672 89.6361 31.16C90.3721 30.616 90.9161 29.832 91.2681 28.808L99.1401 5.576C97.8601 5.16 96.2441 4.952 94.2921 4.952C94.2921 3.576 94.6761 2.424 95.4441 1.496H108.596L117.524 28.664ZM107.444 22.616L104.036 10.712C103.748 9.752 103.38 8.936 102.932 8.264L98.8041 22.616H107.444ZM126.917 29.528C126.917 31.16 128.085 31.976 130.421 31.976C130.421 33.096 130.053 34.104 129.317 35H119.333C118.629 34.136 118.277 33.128 118.277 31.976C119.397 31.976 120.229 31.784 120.773 31.4C121.317 31.016 121.589 30.392 121.589 29.528V6.968C121.589 5.336 120.421 4.52 118.085 4.52C118.085 3.976 118.181 3.432 118.373 2.888C118.565 2.344 118.821 1.88 119.141 1.496H125.813C126.741 1.496 127.669 1.864 128.597 2.6C129.525 3.304 130.405 4.296 131.237 5.576L142.133 22.808V6.968C142.133 6.104 141.845 5.48 141.269 5.096C140.693 4.712 139.845 4.52 138.725 4.52C138.725 3.944 138.821 3.4 139.013 2.888C139.205 2.344 139.477 1.88 139.829 1.496H150.053C150.405 1.88 150.677 2.344 150.869 2.888C151.061 3.432 151.157 3.976 151.157 4.52C150.069 4.52 149.237 4.712 148.661 5.096C148.117 5.48 147.845 6.104 147.845 6.968V35.288H145.925C144.357 35.288 143.205 35.096 142.469 34.712C141.733 34.296 141.029 33.592 140.357 32.6L126.917 12.2V29.528ZM179.384 24.056C179.384 28.184 178.312 31.144 176.168 32.936C174.056 34.728 171.304 35.624 167.912 35.624C167.048 35.624 166.04 35.512 164.888 35.288C163.736 35.096 162.872 34.84 162.296 34.52L160.232 35.624C159.144 34.44 158.232 33.016 157.496 31.352C156.76 29.688 156.392 27.544 156.392 24.92C156.392 23.864 156.472 22.936 156.632 22.136H163.928C163.672 23.256 163.544 24.28 163.544 25.208C163.544 27.096 163.896 28.6 164.6 29.72C165.304 30.84 166.408 31.4 167.912 31.4C168.936 31.4 169.8 31.048 170.504 30.344C171.24 29.64 171.608 28.472 171.608 26.84V7.928C171.608 6.744 171.288 5.896 170.648 5.384C170.008 4.84 168.856 4.568 167.192 4.568C167.192 4.024 167.288 3.48 167.48 2.936C167.672 2.392 167.944 1.928 168.296 1.544H181.448C181.8 1.928 182.072 2.392 182.264 2.936C182.456 3.448 182.552 3.992 182.552 4.568C181.464 4.568 180.664 4.76 180.152 5.144C179.64 5.528 179.384 6.152 179.384 7.016V24.056ZM209.359 21.896C209.359 26.344 208.303 29.752 206.191 32.12C204.111 34.456 201.007 35.624 196.879 35.624C192.719 35.624 189.455 34.488 187.087 32.216C184.719 29.944 183.535 26.664 183.535 22.376V6.92C183.535 6.056 183.311 5.448 182.863 5.096C182.415 4.712 181.647 4.52 180.559 4.52C180.559 3.304 180.927 2.296 181.663 1.496H193.663C194.399 2.296 194.767 3.304 194.767 4.52C193.679 4.52 192.911 4.712 192.463 5.096C192.015 5.448 191.791 6.056 191.791 6.92V23.384C191.791 25.688 192.271 27.544 193.231 28.952C194.223 30.328 195.727 31.016 197.743 31.016C199.759 31.016 201.215 30.392 202.111 29.144C203.039 27.864 203.503 26.2 203.503 24.152V6.92C203.503 6.056 203.231 5.448 202.687 5.096C202.175 4.712 201.311 4.52 200.095 4.52C200.095 3.24 200.447 2.232 201.151 1.496H211.711C212.415 2.296 212.767 3.304 212.767 4.52C211.551 4.52 210.671 4.712 210.127 5.096C209.615 5.448 209.359 6.056 209.359 6.92V21.896ZM220.442 29.528C220.442 31.16 221.61 31.976 223.946 31.976C223.946 33.096 223.578 34.104 222.842 35H212.858C212.154 34.136 211.802 33.128 211.802 31.976C212.922 31.976 213.754 31.784 214.298 31.4C214.842 31.016 215.114 30.392 215.114 29.528V6.968C215.114 5.336 213.946 4.52 211.61 4.52C211.61 3.976 211.706 3.432 211.898 2.888C212.09 2.344 212.346 1.88 212.666 1.496H219.338C220.266 1.496 221.194 1.864 222.122 2.6C223.05 3.304 223.93 4.296 224.762 5.576L235.658 22.808V6.968C235.658 6.104 235.37 5.48 234.794 5.096C234.218 4.712 233.37 4.52 232.25 4.52C232.25 3.944 232.346 3.4 232.538 2.888C232.73 2.344 233.002 1.88 233.354 1.496H243.578C243.93 1.88 244.202 2.344 244.394 2.888C244.586 3.432 244.682 3.976 244.682 4.52C243.594 4.52 242.762 4.712 242.186 5.096C241.642 5.48 241.37 6.104 241.37 6.968V35.288H239.45C237.882 35.288 236.73 35.096 235.994 34.712C235.258 34.296 234.554 33.592 233.882 32.6L220.442 12.2V29.528ZM245.145 35C244.825 34.616 244.569 34.152 244.377 33.608C244.185 33.064 244.089 32.504 244.089 31.928C245.145 31.928 245.881 31.752 246.297 31.4C246.745 31.048 246.969 30.424 246.969 29.528V6.968C246.969 6.072 246.745 5.448 246.297 5.096C245.881 4.712 245.145 4.52 244.089 4.52C244.089 3.976 244.185 3.432 244.377 2.888C244.569 2.344 244.825 1.88 245.145 1.496H256.809C257.129 1.88 257.385 2.344 257.577 2.888C257.769 3.432 257.865 3.976 257.865 4.52C256.809 4.52 256.057 4.712 255.609 5.096C255.193 5.448 254.985 6.072 254.985 6.968V29.528C254.985 30.424 255.193 31.048 255.609 31.4C256.057 31.752 256.809 31.928 257.865 31.928C257.865 32.504 257.769 33.064 257.577 33.608C257.385 34.152 257.129 34.616 256.809 35H245.145ZM272.876 35.624C269.804 35.624 267.148 34.92 264.908 33.512C262.7 32.072 261.004 30.04 259.82 27.416C258.636 24.792 258.044 21.752 258.044 18.296C258.044 14.68 258.652 11.576 259.868 8.984C261.084 6.36 262.796 4.36 265.004 2.984C267.244 1.608 269.852 0.919998 272.828 0.919998C275.9 0.919998 278.556 1.64 280.796 3.08C283.036 4.52 284.748 6.552 285.932 9.176C287.148 11.768 287.756 14.808 287.756 18.296C287.756 21.88 287.132 24.984 285.884 27.608C284.668 30.2 282.94 32.184 280.7 33.56C278.46 34.936 275.852 35.624 272.876 35.624ZM272.876 32.12C274.636 32.12 276.06 31.112 277.148 29.096C278.268 27.08 278.828 23.416 278.828 18.104C278.828 13.048 278.316 9.512 277.292 7.496C276.268 5.48 274.828 4.472 272.972 4.472C271.212 4.472 269.772 5.48 268.652 7.496C267.564 9.512 267.02 13.16 267.02 18.44C267.02 23.496 267.532 27.048 268.556 29.096C269.612 31.112 271.052 32.12 272.876 32.12ZM314.633 27.608C314.985 28.824 315.433 29.736 315.977 30.344C316.553 30.92 317.289 31.272 318.185 31.4V33.8C317.449 34.824 316.057 35.336 314.009 35.336C312.089 35.336 310.569 35.016 309.449 34.376C308.361 33.736 307.545 32.904 307.001 31.88C306.489 30.824 306.009 29.448 305.561 27.752C305.081 25.864 304.569 24.296 304.025 23.048C303.481 21.8 302.777 21.032 301.913 20.744H298.745V29.528C298.745 30.36 299.049 30.984 299.657 31.4C300.265 31.784 301.065 31.976 302.057 31.976C302.057 33.128 301.705 34.136 301.001 35H288.953C288.217 34.104 287.849 33.096 287.849 31.976C288.937 31.976 289.721 31.784 290.201 31.4C290.713 31.016 290.969 30.392 290.969 29.528V6.968C290.969 6.104 290.713 5.48 290.201 5.096C289.689 4.712 288.889 4.52 287.801 4.52C287.801 3.24 288.121 2.232 288.761 1.496C290.873 1.496 293.241 1.432 295.865 1.304C298.169 1.176 299.977 1.112 301.289 1.112C310.441 1.112 315.017 4.2 315.017 10.376C315.017 15.08 312.521 17.944 307.529 18.968C308.969 19.384 310.345 20.392 311.657 21.992C312.969 23.56 313.961 25.432 314.633 27.608ZM300.857 17.432C302.777 17.432 304.281 16.84 305.369 15.656C306.457 14.44 307.001 12.84 307.001 10.856C307.001 8.808 306.521 7.288 305.561 6.296C304.633 5.272 303.145 4.76 301.097 4.76C300.009 4.76 299.225 4.824 298.745 4.952V17.336C299.321 17.4 300.025 17.432 300.857 17.432ZM117.551 47.832L114.431 59H111.791L109.695 51.048L107.503 59L104.879 59.016L101.871 47.832H104.271L106.239 56.504L108.511 47.832H111.007L113.151 56.456L115.135 47.832H117.551ZM126.453 54.376C126.453 54.696 126.432 54.984 126.389 55.24H119.909C119.963 55.88 120.187 56.3813 120.581 56.744C120.976 57.1067 121.461 57.288 122.037 57.288C122.869 57.288 123.461 56.9307 123.813 56.216H126.229C125.973 57.0693 125.483 57.7733 124.757 58.328C124.032 58.872 123.141 59.144 122.085 59.144C121.232 59.144 120.464 58.9573 119.781 58.584C119.109 58.2 118.581 57.6613 118.197 56.968C117.824 56.2747 117.637 55.4747 117.637 54.568C117.637 53.6507 117.824 52.8453 118.197 52.152C118.571 51.4587 119.093 50.9253 119.765 50.552C120.437 50.1787 121.211 49.992 122.085 49.992C122.928 49.992 123.68 50.1733 124.341 50.536C125.013 50.8987 125.531 51.416 125.893 52.088C126.267 52.7493 126.453 53.512 126.453 54.376ZM124.133 53.736C124.123 53.16 123.915 52.7013 123.509 52.36C123.104 52.008 122.608 51.832 122.021 51.832C121.467 51.832 120.997 52.0027 120.613 52.344C120.24 52.6747 120.011 53.1387 119.925 53.736H124.133ZM129.528 51.432C129.816 51.0053 130.211 50.6587 130.712 50.392C131.224 50.1253 131.806 49.992 132.456 49.992C133.214 49.992 133.896 50.1787 134.504 50.552C135.123 50.9253 135.608 51.4587 135.96 52.152C136.323 52.8347 136.504 53.6293 136.504 54.536C136.504 55.4427 136.323 56.248 135.96 56.952C135.608 57.6453 135.123 58.184 134.504 58.568C133.896 58.952 133.214 59.144 132.456 59.144C131.795 59.144 131.214 59.016 130.712 58.76C130.222 58.4933 129.827 58.152 129.528 57.736V59H127.288V47.16H129.528V51.432ZM134.216 54.536C134.216 54.0027 134.104 53.544 133.88 53.16C133.667 52.7653 133.379 52.4667 133.016 52.264C132.664 52.0613 132.28 51.96 131.864 51.96C131.459 51.96 131.075 52.0667 130.712 52.28C130.36 52.4827 130.072 52.7813 129.848 53.176C129.635 53.5707 129.528 54.0347 129.528 54.568C129.528 55.1013 129.635 55.5653 129.848 55.96C130.072 56.3547 130.36 56.6587 130.712 56.872C131.075 57.0747 131.459 57.176 131.864 57.176C132.28 57.176 132.664 57.0693 133.016 56.856C133.379 56.6427 133.667 56.3387 133.88 55.944C134.104 55.5493 134.216 55.08 134.216 54.536ZM144.249 47.832C145.422 47.832 146.451 48.0613 147.337 48.52C148.233 48.9787 148.921 49.6347 149.401 50.488C149.891 51.3307 150.137 52.312 150.137 53.432C150.137 54.552 149.891 55.5333 149.401 56.376C148.921 57.208 148.233 57.8533 147.337 58.312C146.451 58.7707 145.422 59 144.249 59H140.345V47.832H144.249ZM144.169 57.096C145.342 57.096 146.249 56.776 146.889 56.136C147.529 55.496 147.849 54.5947 147.849 53.432C147.849 52.2693 147.529 51.3627 146.889 50.712C146.249 50.0507 145.342 49.72 144.169 49.72H142.585V57.096H144.169ZM159.253 54.376C159.253 54.696 159.232 54.984 159.189 55.24H152.709C152.763 55.88 152.987 56.3813 153.381 56.744C153.776 57.1067 154.261 57.288 154.837 57.288C155.669 57.288 156.261 56.9307 156.613 56.216H159.029C158.773 57.0693 158.283 57.7733 157.557 58.328C156.832 58.872 155.941 59.144 154.885 59.144C154.032 59.144 153.264 58.9573 152.581 58.584C151.909 58.2 151.381 57.6613 150.997 56.968C150.624 56.2747 150.437 55.4747 150.437 54.568C150.437 53.6507 150.624 52.8453 150.997 52.152C151.371 51.4587 151.893 50.9253 152.565 50.552C153.237 50.1787 154.011 49.992 154.885 49.992C155.728 49.992 156.48 50.1733 157.141 50.536C157.813 50.8987 158.331 51.416 158.693 52.088C159.067 52.7493 159.253 53.512 159.253 54.376ZM156.933 53.736C156.923 53.16 156.715 52.7013 156.309 52.36C155.904 52.008 155.408 51.832 154.821 51.832C154.267 51.832 153.797 52.0027 153.413 52.344C153.04 52.6747 152.811 53.1387 152.725 53.736H156.933ZM163.784 56.936L166.024 50.136H168.408L165.128 59H162.408L159.144 50.136H161.544L163.784 56.936ZM177.107 54.376C177.107 54.696 177.085 54.984 177.043 55.24H170.563C170.616 55.88 170.84 56.3813 171.235 56.744C171.629 57.1067 172.115 57.288 172.691 57.288C173.523 57.288 174.115 56.9307 174.467 56.216H176.883C176.627 57.0693 176.136 57.7733 175.411 58.328C174.685 58.872 173.795 59.144 172.739 59.144C171.885 59.144 171.117 58.9573 170.435 58.584C169.763 58.2 169.235 57.6613 168.851 56.968C168.477 56.2747 168.291 55.4747 168.291 54.568C168.291 53.6507 168.477 52.8453 168.851 52.152C169.224 51.4587 169.747 50.9253 170.419 50.552C171.091 50.1787 171.864 49.992 172.739 49.992C173.581 49.992 174.333 50.1733 174.995 50.536C175.667 50.8987 176.184 51.416 176.547 52.088C176.92 52.7493 177.107 53.512 177.107 54.376ZM174.787 53.736C174.776 53.16 174.568 52.7013 174.163 52.36C173.757 52.008 173.261 51.832 172.675 51.832C172.12 51.832 171.651 52.0027 171.267 52.344C170.893 52.6747 170.664 53.1387 170.579 53.736H174.787ZM180.181 47.16V59H177.941V47.16H180.181ZM185.531 59.144C184.677 59.144 183.909 58.9573 183.227 58.584C182.544 58.2 182.005 57.6613 181.611 56.968C181.227 56.2747 181.035 55.4747 181.035 54.568C181.035 53.6613 181.232 52.8613 181.627 52.168C182.032 51.4747 182.581 50.9413 183.275 50.568C183.968 50.184 184.741 49.992 185.595 49.992C186.448 49.992 187.221 50.184 187.915 50.568C188.608 50.9413 189.152 51.4747 189.547 52.168C189.952 52.8613 190.155 53.6613 190.155 54.568C190.155 55.4747 189.947 56.2747 189.531 56.968C189.125 57.6613 188.571 58.2 187.867 58.584C187.173 58.9573 186.395 59.144 185.531 59.144ZM185.531 57.192C185.936 57.192 186.315 57.096 186.667 56.904C187.029 56.7013 187.317 56.4027 187.531 56.008C187.744 55.6133 187.851 55.1333 187.851 54.568C187.851 53.7253 187.627 53.08 187.179 52.632C186.741 52.1733 186.203 51.944 185.563 51.944C184.923 51.944 184.384 52.1733 183.947 52.632C183.52 53.08 183.307 53.7253 183.307 54.568C183.307 55.4107 183.515 56.0613 183.931 56.52C184.357 56.968 184.891 57.192 185.531 57.192ZM193.238 51.416C193.526 51.0107 193.92 50.6747 194.422 50.408C194.934 50.1307 195.515 49.992 196.166 49.992C196.923 49.992 197.606 50.1787 198.214 50.552C198.832 50.9253 199.318 51.4587 199.67 52.152C200.032 52.8347 200.214 53.6293 200.214 54.536C200.214 55.4427 200.032 56.248 199.67 56.952C199.318 57.6453 198.832 58.184 198.214 58.568C197.606 58.952 196.923 59.144 196.166 59.144C195.515 59.144 194.939 59.0107 194.438 58.744C193.947 58.4773 193.547 58.1413 193.238 57.736V63.224H190.998V50.136H193.238V51.416ZM197.926 54.536C197.926 54.0027 197.814 53.544 197.59 53.16C197.376 52.7653 197.088 52.4667 196.726 52.264C196.374 52.0613 195.99 51.96 195.574 51.96C195.168 51.96 194.784 52.0667 194.422 52.28C194.07 52.4827 193.782 52.7813 193.558 53.176C193.344 53.5707 193.238 54.0347 193.238 54.568C193.238 55.1013 193.344 55.5653 193.558 55.96C193.782 56.3547 194.07 56.6587 194.422 56.872C194.784 57.0747 195.168 57.176 195.574 57.176C195.99 57.176 196.374 57.0693 196.726 56.856C197.088 56.6427 197.376 56.3387 197.59 55.944C197.814 55.5493 197.926 55.08 197.926 54.536ZM209.282 54.376C209.282 54.696 209.26 54.984 209.218 55.24H202.738C202.791 55.88 203.015 56.3813 203.41 56.744C203.804 57.1067 204.29 57.288 204.866 57.288C205.698 57.288 206.29 56.9307 206.642 56.216H209.058C208.802 57.0693 208.311 57.7733 207.586 58.328C206.86 58.872 205.97 59.144 204.914 59.144C204.06 59.144 203.292 58.9573 202.61 58.584C201.938 58.2 201.41 57.6613 201.026 56.968C200.652 56.2747 200.465 55.4747 200.465 54.568C200.465 53.6507 200.652 52.8453 201.026 52.152C201.399 51.4587 201.922 50.9253 202.594 50.552C203.266 50.1787 204.039 49.992 204.914 49.992C205.756 49.992 206.508 50.1733 207.17 50.536C207.842 50.8987 208.359 51.416 208.722 52.088C209.095 52.7493 209.282 53.512 209.282 54.376ZM206.962 53.736C206.951 53.16 206.743 52.7013 206.338 52.36C205.932 52.008 205.436 51.832 204.85 51.832C204.295 51.832 203.826 52.0027 203.442 52.344C203.068 52.6747 202.839 53.1387 202.754 53.736H206.962ZM212.357 51.512C212.645 51.0427 213.018 50.6747 213.477 50.408C213.946 50.1413 214.479 50.008 215.077 50.008V52.36H214.485C213.781 52.36 213.247 52.5253 212.885 52.856C212.533 53.1867 212.357 53.7627 212.357 54.584V59H210.117V50.136H212.357V51.512Z" fill="black"/>
</svg>
