<svg width="150" height="150" viewBox="0 0 150 150" fill="none" xmlns="http://www.w3.org/2000/svg">
<path d="M31.8366 0.146729H38.5843V6.81353H44.7568V0.146729H51.5051V20.3349H44.7574V13.5744H38.5849V20.3349H31.8372V0.146729H31.8366ZM60.3782 6.84165H54.4383V0.146729H73.0693V6.84165H67.1265V20.3349H60.3788V6.84165H60.3782ZM76.026 0.146729H83.0631L87.3905 7.24038L91.7144 0.146729H98.7524V20.3349H92.0323V10.3289L87.3902 17.5066H87.2745L82.6292 10.3289V20.3349H76.026V0.146729ZM102.111 0.146729H108.861V13.6623H118.35V20.3349H102.111V0.146729ZM21.9688 29.5681L31.621 137.83L74.9347 149.853L118.368 137.812L128.031 29.5678L21.9688 29.5681ZM107.897 55.2597L107.293 61.9913L107.027 64.976H106.984H75H74.9537H56.2166L57.4301 78.5718H74.9537H75H102.24H105.819L105.495 82.1378L102.374 117.095L102.175 119.337L75 126.869V126.871L74.9391 126.888L47.7401 119.337L45.8795 98.4893H52.023H59.2087L60.1541 109.079L74.9414 113.073L74.9537 113.069V113.068L89.7636 109.072L91.3037 91.8506H75H74.9537H45.2865L42.0231 55.2597L41.7053 51.6981H74.9537H75H108.215L107.897 55.2597Z" fill="black"/>
</svg>
