<svg width="24" height="24" viewBox="0 0 24 24" fill="none" xmlns="http://www.w3.org/2000/svg">
<path d="M18.0082 0C15.8799 0 13.588 0.57675 12.0055 2.16281C10.4229 0.57675 8.13097 0 6.00273 0C4.42019 0 2.73943 0.317212 1.33151 1.13908C0.534789 1.6149 0 2.63863 0 3.80655V20.0709C0 21.9453 1.33151 23.3295 2.70668 22.8681C3.77626 22.5077 4.91132 22.3491 6.00273 22.3491C7.70532 22.3491 9.51705 22.7239 10.9795 23.6756C11.6344 24.1081 12.3765 24.1081 13.0205 23.6756C14.4829 22.7095 16.2947 22.3491 17.9973 22.3491C19.0887 22.3491 20.2237 22.5077 21.2933 22.8681C22.6685 23.3439 24 21.9597 24 20.0709V3.80655C24 2.63863 23.4652 1.6149 22.6685 1.13908C21.2715 0.317212 19.5907 0 18.0082 0ZM21.8281 18.3551C21.8281 19.2634 21.1951 19.9267 20.5184 19.7681C19.6999 19.5662 18.8486 19.4797 18.0082 19.4797C16.1528 19.4797 13.4789 20.4169 12.0055 21.6425V5.04656C13.4789 3.82097 16.1528 2.88375 18.0082 2.88375C19.0123 2.88375 20.0055 3.01352 20.955 3.28747C21.457 3.43166 21.8281 4.02283 21.8281 4.70051V18.3551Z" fill="#141414"/>
<path d="M14.1664 9.38662C13.8172 9.38662 13.5007 9.09825 13.3915 8.63685C13.2496 8.07452 13.4898 7.45451 13.9154 7.28149C15.5962 6.56055 17.7681 6.32985 19.7653 6.63264C20.2128 6.70474 20.5402 7.23823 20.4857 7.8294C20.4311 8.42057 20.0273 8.85313 19.5798 8.78104C17.8117 8.50708 15.8799 8.72336 14.4175 9.34337C14.3301 9.35779 14.2428 9.38662 14.1664 9.38662Z" fill="#141414"/>
<path d="M14.1664 13.222C13.8172 13.222 13.5007 12.9336 13.3915 12.4722C13.2496 11.9098 13.4898 11.2898 13.9154 11.1168C15.5853 10.3959 17.7681 10.1652 19.7653 10.468C20.2128 10.5401 20.5402 11.0736 20.4857 11.6647C20.4311 12.2559 20.0273 12.6885 19.5798 12.6164C17.8117 12.3424 15.8799 12.5587 14.4175 13.1787C14.3301 13.2075 14.2428 13.222 14.1664 13.222Z" fill="#141414"/>
<path d="M14.1664 17.0573C13.8172 17.0573 13.5007 16.769 13.3915 16.3076C13.2496 15.7452 13.4898 15.1252 13.9154 14.9522C15.5853 14.2313 17.7681 14.0006 19.7653 14.3034C20.2128 14.3755 20.5402 14.9089 20.4857 15.5001C20.4311 16.0913 20.0273 16.5094 19.5798 16.4518C17.8117 16.1778 15.8799 16.3941 14.4175 17.0141C14.3301 17.0429 14.2428 17.0573 14.1664 17.0573Z" fill="#141414"/>
</svg>
