<svg width="222" height="157" viewBox="0 0 222 157" fill="none" xmlns="http://www.w3.org/2000/svg">
<path d="M50.5469 42.9531C50.5156 45.2969 50.2656 47.5781 49.7969 49.7969C49.3594 52.0156 48.7031 54.1094 47.8281 56.0781C47.1406 57.6094 46.3125 59.0781 45.3438 60.4844C44.4062 61.8594 43.3281 63.125 42.1094 64.2812L53.4062 74.5L44.9219 82.0469L31.9375 70.0469C30.8438 70.3281 29.7188 70.5469 28.5625 70.7031C27.4375 70.8594 26.2656 70.9375 25.0469 70.9375C22.2969 70.9375 19.7656 70.5625 17.4531 69.8125C15.1406 69.0625 13.0469 68.0156 11.1719 66.6719C9.26562 65.2969 7.59375 63.6562 6.15625 61.75C4.75 59.8438 3.60938 57.7969 2.73438 55.6094C1.95312 53.7031 1.35938 51.6875 0.953125 49.5625C0.546875 47.4062 0.34375 45.2031 0.34375 42.9531V31.1406C0.34375 28.5469 0.53125 26.0625 0.90625 23.6875C1.3125 21.2813 1.89062 19.0625 2.64062 17.0312C3.51562 14.5 4.6875 12.2187 6.15625 10.1875C7.625 8.125 9.375 6.375 11.4062 4.9375C13.25 3.625 15.3125 2.60937 17.5938 1.89062C19.875 1.17188 22.3594 0.8125 25.0469 0.8125C27.7344 0.8125 30.25 1.17188 32.5938 1.89062C34.9375 2.60937 37.0625 3.625 38.9688 4.9375C41.125 6.46875 43.0156 8.34375 44.6406 10.5625C46.2656 12.7812 47.5469 15.2656 48.4844 18.0156C49.1719 19.9531 49.6875 22.0312 50.0312 24.25C50.375 26.4375 50.5469 28.7344 50.5469 31.1406V42.9531ZM37.1875 31.0469C37.1875 29.2031 37.0938 27.4375 36.9062 25.75C36.7188 24.0625 36.4062 22.5156 35.9688 21.1094C35.5938 19.6406 35.0469 18.3125 34.3281 17.125C33.6094 15.9062 32.7969 14.875 31.8906 14.0312C31.0156 13.3125 30 12.75 28.8438 12.3438C27.7188 11.9375 26.4531 11.7344 25.0469 11.7344C23.7031 11.7344 22.5 11.9219 21.4375 12.2969C20.375 12.6719 19.4375 13.2188 18.625 13.9375C17.4375 14.9688 16.4844 16.2969 15.7656 17.9219C15.0781 19.5156 14.5781 21.3125 14.2656 23.3125C14.0781 24.4688 13.9375 25.7031 13.8438 27.0156C13.75 28.2969 13.7031 29.6406 13.7031 31.0469V42.9531C13.7031 44.1406 13.75 45.3281 13.8438 46.5156C13.9688 47.7031 14.1562 48.8438 14.4062 49.9375C14.7812 51.625 15.3281 53.1562 16.0469 54.5312C16.7656 55.9062 17.6719 57.0469 18.7656 57.9531C19.5469 58.6406 20.4531 59.1719 21.4844 59.5469C22.5469 59.9219 23.7344 60.1094 25.0469 60.1094C26.3906 60.1094 27.6094 59.9219 28.7031 59.5469C29.7969 59.1406 30.7812 58.6094 31.6562 57.9531C32.75 57.0469 33.6719 55.9219 34.4219 54.5781C35.2031 53.2344 35.8125 51.7969 36.25 50.2656C36.5625 49.1094 36.7969 47.9219 36.9531 46.7031C37.1094 45.4531 37.1875 44.2031 37.1875 42.9531V31.0469ZM105.625 1.75L105.672 46.9844C105.672 50.7969 105.141 54.1875 104.078 57.1562C103.047 60.125 101.547 62.625 99.5781 64.6562C97.5781 66.7188 95.1406 68.2812 92.2656 69.3438C89.4219 70.4062 86.1719 70.9375 82.5156 70.9375C79.0781 70.9375 75.9688 70.4062 73.1875 69.3438C70.4375 68.2812 68.0781 66.7344 66.1094 64.7031C64.1406 62.6719 62.6094 60.1719 61.5156 57.2031C60.4531 54.2031 59.9219 50.7969 59.9219 46.9844L59.9688 1.75H73.1406L73.1875 46.9844C73.2188 49.2656 73.4375 51.2656 73.8438 52.9844C74.2812 54.7031 74.9219 56.125 75.7656 57.25C76.5469 58.2812 77.5 59.0625 78.625 59.5938C79.75 60.0938 81.0469 60.3438 82.5156 60.3438C84.1094 60.3438 85.5156 60.0781 86.7344 59.5469C87.9844 58.9844 89.0156 58.1562 89.8281 57.0625C90.7031 55.9375 91.3594 54.5312 91.7969 52.8438C92.2344 51.1562 92.4688 49.2031 92.5 46.9844L92.5469 1.75H105.625ZM159.812 40.0938H131.781V59.3594H164.547V70H118.562V1.75H164.406V12.4844H131.781V29.6875H159.812V40.0938ZM191.641 1.75L198.109 27.3906L205.469 1.75H221.828V70H209.734V49.7969L210.297 17.875L201.344 47.5H194.828L186.812 19.1406L187.375 49.7969V70H175.281V1.75H191.641ZM95.5938 138.188C95.5938 136.969 95.375 135.828 94.9375 134.766C94.5312 133.703 93.8281 132.703 92.8281 131.766C91.7969 130.859 90.4531 130.031 88.7969 129.281C87.1719 128.5 85.1406 127.781 82.7031 127.125C78.9219 126.094 75.5938 124.844 72.7188 123.375C69.875 121.906 67.5469 120.297 65.7344 118.547C63.9219 116.797 62.5469 114.859 61.6094 112.734C60.7031 110.609 60.25 108.297 60.25 105.797C60.25 102.922 60.8594 100.312 62.0781 97.9688C63.2969 95.625 64.9844 93.625 67.1406 91.9688C69.2969 90.3125 71.8438 89.0469 74.7812 88.1719C77.7188 87.2656 80.9062 86.8125 84.3438 86.8125C87.9062 86.8125 91.1562 87.3281 94.0938 88.3594C97.0625 89.3906 99.6094 90.8281 101.734 92.6719C103.859 94.5469 105.516 96.7656 106.703 99.3281C107.891 101.891 108.484 104.703 108.484 107.766H95.6406C95.5781 106.234 95.2969 104.828 94.7969 103.547C94.3281 102.266 93.625 101.156 92.6875 100.219C91.7188 99.3125 90.5156 98.6094 89.0781 98.1094C87.6719 97.5781 86.0156 97.3125 84.1094 97.3125C82.3594 97.3125 80.7969 97.5312 79.4219 97.9688C78.0781 98.375 76.9375 98.9531 76 99.7031C75.0625 100.484 74.3438 101.406 73.8438 102.469C73.375 103.5 73.1406 104.625 73.1406 105.844C73.1406 107.125 73.4531 108.281 74.0781 109.312C74.7344 110.344 75.6719 111.266 76.8906 112.078C78.1094 112.922 79.5781 113.688 81.2969 114.375C83.0469 115.062 85.0156 115.703 87.2031 116.297C89.5469 116.953 91.7812 117.75 93.9062 118.688C96.0312 119.625 97.9844 120.703 99.7656 121.922C102.453 123.922 104.594 126.25 106.188 128.906C107.781 131.562 108.578 134.625 108.578 138.094C108.578 141.094 107.969 143.766 106.75 146.109C105.562 148.422 103.906 150.375 101.781 151.969C99.6562 153.594 97.125 154.828 94.1875 155.672C91.25 156.484 88.0469 156.891 84.5781 156.891C81.1719 156.891 77.7969 156.391 74.4531 155.391C71.1406 154.359 68.25 152.859 65.7812 150.891C63.4375 148.953 61.5781 146.672 60.2031 144.047C58.8594 141.422 58.1875 138.344 58.1875 134.812H71.125C71.1875 136.875 71.5469 138.641 72.2031 140.109C72.8594 141.578 73.7812 142.781 74.9688 143.719C76.125 144.656 77.5156 145.344 79.1406 145.781C80.7969 146.219 82.6094 146.438 84.5781 146.438C86.3281 146.438 87.875 146.234 89.2188 145.828C90.5938 145.422 91.75 144.859 92.6875 144.141C93.625 143.422 94.3438 142.562 94.8438 141.562C95.3438 140.531 95.5938 139.406 95.5938 138.188ZM165.438 126.891C165.438 129.828 165.172 132.625 164.641 135.281C164.109 137.906 163.344 140.344 162.344 142.594C161.281 144.844 159.969 146.906 158.406 148.781C156.844 150.656 155.062 152.219 153.062 153.469C151.25 154.562 149.25 155.406 147.062 156C144.906 156.625 142.578 156.938 140.078 156.938C137.422 156.938 134.969 156.594 132.719 155.906C130.469 155.219 128.422 154.25 126.578 153C124.766 151.688 123.141 150.109 121.703 148.266C120.266 146.391 119.062 144.281 118.094 141.938C117.219 139.781 116.547 137.438 116.078 134.906C115.641 132.375 115.422 129.703 115.422 126.891V116.953C115.422 113.953 115.672 111.109 116.172 108.422C116.703 105.734 117.469 103.25 118.469 100.969C119.438 98.8125 120.609 96.8594 121.984 95.1094C123.391 93.3594 125 91.8594 126.812 90.6094C128.594 89.3906 130.594 88.4531 132.812 87.7969C135.031 87.1406 137.438 86.8125 140.031 86.8125C142.656 86.8125 145.109 87.1562 147.391 87.8438C149.703 88.5 151.781 89.4531 153.625 90.7031C155.469 91.8906 157.078 93.3281 158.453 95.0156C159.859 96.7031 161.062 98.5625 162.062 100.594C163.156 102.906 163.984 105.438 164.547 108.188C165.141 110.938 165.438 113.859 165.438 116.953V126.891ZM152.078 116.859C152.078 115.109 151.984 113.453 151.797 111.891C151.641 110.297 151.375 108.828 151 107.484C150.531 105.797 149.906 104.297 149.125 102.984C148.344 101.641 147.422 100.547 146.359 99.7031C145.516 99.0781 144.562 98.5938 143.5 98.25C142.469 97.9062 141.312 97.7344 140.031 97.7344C138.812 97.7344 137.703 97.8906 136.703 98.2031C135.734 98.5156 134.859 98.9688 134.078 99.5625C133.016 100.438 132.109 101.531 131.359 102.844C130.641 104.156 130.078 105.688 129.672 107.438C129.359 108.781 129.125 110.25 128.969 111.844C128.844 113.438 128.781 115.109 128.781 116.859V126.891C128.781 128.547 128.844 130.141 128.969 131.672C129.094 133.203 129.312 134.625 129.625 135.938C129.969 137.594 130.469 139.109 131.125 140.484C131.812 141.828 132.609 142.922 133.516 143.766C134.359 144.516 135.312 145.094 136.375 145.5C137.469 145.906 138.703 146.109 140.078 146.109C141.391 146.109 142.594 145.922 143.688 145.547C144.781 145.172 145.75 144.625 146.594 143.906C147.656 143.031 148.547 141.938 149.266 140.625C150.016 139.281 150.609 137.766 151.047 136.078C151.391 134.766 151.641 133.328 151.797 131.766C151.984 130.203 152.078 128.578 152.078 126.891V116.859ZM220.938 87.75L220.984 132.984C220.984 136.797 220.453 140.188 219.391 143.156C218.359 146.125 216.859 148.625 214.891 150.656C212.891 152.719 210.453 154.281 207.578 155.344C204.734 156.406 201.484 156.938 197.828 156.938C194.391 156.938 191.281 156.406 188.5 155.344C185.75 154.281 183.391 152.734 181.422 150.703C179.453 148.672 177.922 146.172 176.828 143.203C175.766 140.203 175.234 136.797 175.234 132.984L175.281 87.75H188.453L188.5 132.984C188.531 135.266 188.75 137.266 189.156 138.984C189.594 140.703 190.234 142.125 191.078 143.25C191.859 144.281 192.812 145.062 193.938 145.594C195.062 146.094 196.359 146.344 197.828 146.344C199.422 146.344 200.828 146.078 202.047 145.547C203.297 144.984 204.328 144.156 205.141 143.062C206.016 141.938 206.672 140.531 207.109 138.844C207.547 137.156 207.781 135.203 207.812 132.984L207.859 87.75H220.938Z" fill="black"/>
</svg>
