<svg width="124" height="17" viewBox="0 0 124 17" fill="none" xmlns="http://www.w3.org/2000/svg">
<path d="M16.032 0.832L12.912 12H10.272L8.176 4.048L5.984 12L3.36 12.016L0.352 0.832H2.752L4.72 9.504L6.992 0.832H9.488L11.632 9.456L13.616 0.832H16.032ZM25.7346 7.376C25.7346 7.696 25.7133 7.984 25.6706 8.24H19.1906C19.244 8.88 19.468 9.38133 19.8626 9.744C20.2573 10.1067 20.7426 10.288 21.3186 10.288C22.1506 10.288 22.7426 9.93067 23.0946 9.216H25.5106C25.2546 10.0693 24.764 10.7733 24.0386 11.328C23.3133 11.872 22.4226 12.144 21.3666 12.144C20.5133 12.144 19.7453 11.9573 19.0626 11.584C18.3906 11.2 17.8626 10.6613 17.4786 9.968C17.1053 9.27467 16.9186 8.47467 16.9186 7.568C16.9186 6.65067 17.1053 5.84533 17.4786 5.152C17.852 4.45867 18.3746 3.92533 19.0466 3.552C19.7186 3.17867 20.492 2.992 21.3666 2.992C22.2093 2.992 22.9613 3.17333 23.6226 3.536C24.2946 3.89867 24.812 4.416 25.1746 5.088C25.548 5.74933 25.7346 6.512 25.7346 7.376ZM23.4146 6.736C23.404 6.16 23.196 5.70133 22.7906 5.36C22.3853 5.008 21.8893 4.832 21.3026 4.832C20.748 4.832 20.2786 5.00267 19.8946 5.344C19.5213 5.67467 19.292 6.13867 19.2066 6.736H23.4146ZM29.6096 4.432C29.8976 4.00533 30.2923 3.65867 30.7936 3.392C31.3056 3.12533 31.887 2.992 32.5376 2.992C33.295 2.992 33.9776 3.17867 34.5856 3.552C35.2043 3.92533 35.6896 4.45867 36.0416 5.152C36.4043 5.83467 36.5856 6.62933 36.5856 7.536C36.5856 8.44267 36.4043 9.248 36.0416 9.952C35.6896 10.6453 35.2043 11.184 34.5856 11.568C33.9776 11.952 33.295 12.144 32.5376 12.144C31.8763 12.144 31.295 12.016 30.7936 11.76C30.303 11.4933 29.9083 11.152 29.6096 10.736V12H27.3696V0.16H29.6096V4.432ZM34.2976 7.536C34.2976 7.00267 34.1856 6.544 33.9616 6.16C33.7483 5.76533 33.4603 5.46667 33.0976 5.264C32.7456 5.06133 32.3616 4.96 31.9456 4.96C31.5403 4.96 31.1563 5.06667 30.7936 5.28C30.4416 5.48267 30.1536 5.78133 29.9296 6.176C29.7163 6.57067 29.6096 7.03467 29.6096 7.568C29.6096 8.10133 29.7163 8.56533 29.9296 8.96C30.1536 9.35467 30.4416 9.65867 30.7936 9.872C31.1563 10.0747 31.5403 10.176 31.9456 10.176C32.3616 10.176 32.7456 10.0693 33.0976 9.856C33.4603 9.64267 33.7483 9.33867 33.9616 8.944C34.1856 8.54933 34.2976 8.08 34.2976 7.536ZM45.9299 0.832C47.1032 0.832 48.1325 1.06133 49.0179 1.52C49.9139 1.97867 50.6019 2.63467 51.0819 3.488C51.5725 4.33067 51.8179 5.312 51.8179 6.432C51.8179 7.552 51.5725 8.53333 51.0819 9.376C50.6019 10.208 49.9139 10.8533 49.0179 11.312C48.1325 11.7707 47.1032 12 45.9299 12H42.0259V0.832H45.9299ZM45.8499 10.096C47.0232 10.096 47.9299 9.776 48.5699 9.136C49.2099 8.496 49.5299 7.59467 49.5299 6.432C49.5299 5.26933 49.2099 4.36267 48.5699 3.712C47.9299 3.05067 47.0232 2.72 45.8499 2.72H44.2659V10.096H45.8499ZM61.7346 7.376C61.7346 7.696 61.7133 7.984 61.6706 8.24H55.1906C55.244 8.88 55.468 9.38133 55.8626 9.744C56.2573 10.1067 56.7426 10.288 57.3186 10.288C58.1506 10.288 58.7426 9.93067 59.0946 9.216H61.5106C61.2546 10.0693 60.764 10.7733 60.0386 11.328C59.3133 11.872 58.4226 12.144 57.3666 12.144C56.5133 12.144 55.7453 11.9573 55.0626 11.584C54.3906 11.2 53.8626 10.6613 53.4786 9.968C53.1053 9.27467 52.9186 8.47467 52.9186 7.568C52.9186 6.65067 53.1053 5.84533 53.4786 5.152C53.852 4.45867 54.3746 3.92533 55.0466 3.552C55.7186 3.17867 56.492 2.992 57.3666 2.992C58.2093 2.992 58.9613 3.17333 59.6226 3.536C60.2946 3.89867 60.812 4.416 61.1746 5.088C61.548 5.74933 61.7346 6.512 61.7346 7.376ZM59.4146 6.736C59.404 6.16 59.196 5.70133 58.7906 5.36C58.3853 5.008 57.8893 4.832 57.3026 4.832C56.748 4.832 56.2786 5.00267 55.8946 5.344C55.5213 5.67467 55.292 6.13867 55.2066 6.736H59.4146ZM67.0656 9.936L69.3056 3.136H71.6896L68.4096 12H65.6896L62.4256 3.136H64.8256L67.0656 9.936ZM81.1878 7.376C81.1878 7.696 81.1664 7.984 81.1238 8.24H74.6438C74.6971 8.88 74.9211 9.38133 75.3158 9.744C75.7104 10.1067 76.1958 10.288 76.7718 10.288C77.6038 10.288 78.1958 9.93067 78.5478 9.216H80.9638C80.7078 10.0693 80.2171 10.7733 79.4918 11.328C78.7664 11.872 77.8758 12.144 76.8198 12.144C75.9664 12.144 75.1984 11.9573 74.5158 11.584C73.8438 11.2 73.3158 10.6613 72.9318 9.968C72.5584 9.27467 72.3717 8.47467 72.3717 7.568C72.3717 6.65067 72.5584 5.84533 72.9318 5.152C73.3051 4.45867 73.8278 3.92533 74.4998 3.552C75.1718 3.17867 75.9451 2.992 76.8198 2.992C77.6624 2.992 78.4144 3.17333 79.0758 3.536C79.7478 3.89867 80.2651 4.416 80.6278 5.088C81.0011 5.74933 81.1878 6.512 81.1878 7.376ZM78.8678 6.736C78.8571 6.16 78.6491 5.70133 78.2438 5.36C77.8384 5.008 77.3424 4.832 76.7558 4.832C76.2011 4.832 75.7318 5.00267 75.3478 5.344C74.9744 5.67467 74.7451 6.13867 74.6598 6.736H78.8678ZM85.0628 0.16V12H82.8228V0.16H85.0628ZM91.2119 12.144C90.3585 12.144 89.5905 11.9573 88.9079 11.584C88.2252 11.2 87.6865 10.6613 87.2919 9.968C86.9079 9.27467 86.7159 8.47467 86.7159 7.568C86.7159 6.66133 86.9132 5.86133 87.3079 5.168C87.7132 4.47467 88.2625 3.94133 88.9559 3.568C89.6492 3.184 90.4225 2.992 91.2759 2.992C92.1292 2.992 92.9025 3.184 93.5959 3.568C94.2892 3.94133 94.8332 4.47467 95.2279 5.168C95.6332 5.86133 95.8359 6.66133 95.8359 7.568C95.8359 8.47467 95.6279 9.27467 95.2119 9.968C94.8065 10.6613 94.2519 11.2 93.5479 11.584C92.8545 11.9573 92.0759 12.144 91.2119 12.144ZM91.2119 10.192C91.6172 10.192 91.9959 10.096 92.3479 9.904C92.7105 9.70133 92.9985 9.40267 93.2119 9.008C93.4252 8.61333 93.5319 8.13333 93.5319 7.568C93.5319 6.72533 93.3079 6.08 92.8599 5.632C92.4225 5.17333 91.8839 4.944 91.2439 4.944C90.6039 4.944 90.0652 5.17333 89.6279 5.632C89.2012 6.08 88.9879 6.72533 88.9879 7.568C88.9879 8.41067 89.1959 9.06133 89.6119 9.52C90.0385 9.968 90.5719 10.192 91.2119 10.192ZM99.719 4.416C100.007 4.01067 100.402 3.67467 100.903 3.408C101.415 3.13067 101.996 2.992 102.647 2.992C103.404 2.992 104.087 3.17867 104.695 3.552C105.314 3.92533 105.799 4.45867 106.151 5.152C106.514 5.83467 106.695 6.62933 106.695 7.536C106.695 8.44267 106.514 9.248 106.151 9.952C105.799 10.6453 105.314 11.184 104.695 11.568C104.087 11.952 103.404 12.144 102.647 12.144C101.996 12.144 101.42 12.0107 100.919 11.744C100.428 11.4773 100.028 11.1413 99.719 10.736V16.224H97.479V3.136H99.719V4.416ZM104.407 7.536C104.407 7.00267 104.295 6.544 104.071 6.16C103.858 5.76533 103.57 5.46667 103.207 5.264C102.855 5.06133 102.471 4.96 102.055 4.96C101.65 4.96 101.266 5.06667 100.903 5.28C100.551 5.48267 100.263 5.78133 100.039 6.176C99.8257 6.57067 99.719 7.03467 99.719 7.568C99.719 8.10133 99.8257 8.56533 100.039 8.96C100.263 9.35467 100.551 9.65867 100.903 9.872C101.266 10.0747 101.65 10.176 102.055 10.176C102.471 10.176 102.855 10.0693 103.207 9.856C103.57 9.64267 103.858 9.33867 104.071 8.944C104.295 8.54933 104.407 8.08 104.407 7.536ZM116.563 7.376C116.563 7.696 116.541 7.984 116.499 8.24H110.019C110.072 8.88 110.296 9.38133 110.691 9.744C111.085 10.1067 111.571 10.288 112.147 10.288C112.979 10.288 113.571 9.93067 113.923 9.216H116.339C116.083 10.0693 115.592 10.7733 114.867 11.328C114.141 11.872 113.251 12.144 112.195 12.144C111.341 12.144 110.573 11.9573 109.891 11.584C109.219 11.2 108.691 10.6613 108.307 9.968C107.933 9.27467 107.747 8.47467 107.747 7.568C107.747 6.65067 107.933 5.84533 108.307 5.152C108.68 4.45867 109.203 3.92533 109.875 3.552C110.547 3.17867 111.32 2.992 112.195 2.992C113.037 2.992 113.789 3.17333 114.451 3.536C115.123 3.89867 115.64 4.416 116.003 5.088C116.376 5.74933 116.563 6.512 116.563 7.376ZM114.243 6.736C114.232 6.16 114.024 5.70133 113.619 5.36C113.213 5.008 112.717 4.832 112.131 4.832C111.576 4.832 111.107 5.00267 110.723 5.344C110.349 5.67467 110.12 6.13867 110.035 6.736H114.243ZM120.438 4.512C120.726 4.04267 121.099 3.67467 121.558 3.408C122.027 3.14133 122.56 3.008 123.158 3.008V5.36H122.566C121.862 5.36 121.328 5.52533 120.966 5.856C120.614 6.18667 120.438 6.76267 120.438 7.584V12H118.198V3.136H120.438V4.512Z" fill="black"/>
</svg>
